<svg id="a23b62ee-d930-415c-afe7-c7329e9dcd69" data-name="Calque 1"
    xmlns="http://www.w3.org/2000/svg" viewBox="0 0 64.21 64.21">
    <path d="M.09.05H64.3v64.2H.09Z" transform="translate(-0.09 -0.05)" style="fill:none" />
    <path
        d="M7.71,35.26c-.89-5.83-1.34-8.75-.24-11.33S11,19.58,15.9,16.05l3.66-2.64c6.08-4.4,9.12-6.6,12.63-6.6s6.54,2.2,12.62,6.6l3.66,2.64c4.89,3.53,7.33,5.3,8.43,7.88s.66,5.5-.24,11.33l-.76,5C54.63,48.48,54,52.61,51,55.08s-7.29,2.46-16,2.46H29.3c-8.67,0-13,0-16-2.46s-3.6-6.6-4.87-14.86Z"
        transform="translate(-0.09 -0.05)" style="fill:#FFFFFF" />
    <path
        d="M7.71,35.26c-.89-5.83-1.34-8.75-.24-11.33S11,19.58,15.9,16.05l3.66-2.64c6.08-4.4,9.12-6.6,12.63-6.6s6.54,2.2,12.62,6.6l3.66,2.64c4.89,3.53,7.33,5.3,8.43,7.88s.66,5.5-.24,11.33l-.76,5C54.63,48.48,54,52.61,51,55.08s-7.29,2.46-16,2.46H29.3c-8.67,0-13,0-16-2.46s-3.6-6.6-4.87-14.86Z"
        transform="translate(-0.09 -0.05)"
        style="fill:none;stroke:#000;stroke-linecap:round;stroke-linejoin:round;stroke-width:2px" />
    <path d="M24.57,57.54l-.63-8.9a8.27,8.27,0,1,1,16.49,0l-.64,8.9"
        transform="translate(-0.09 -0.05)" style="fill:#fff" />
    <path d="M24.57,57.54l-.63-8.9a8.27,8.27,0,1,1,16.49,0l-.64,8.9"
        transform="translate(-0.09 -0.05)"
        style="fill:none;stroke:#000;stroke-linecap:round;stroke-linejoin:round;stroke-width:2px" />
</svg>