<?xml version="1.0" encoding="UTF-8"?>
<svg xmlns="http://www.w3.org/2000/svg" id="a" width="865.76" height="682.89" viewBox="0 0 865.76 682.89">
  <g>
    <g>
      <g>
        <path d="M564.53,235.02c-.19,.68,.21,1.39,.89,1.58h.2l14.33,1.95c.83,.11,1.6-.42,1.81-1.23l7.08-27.8c.23-.78-.22-1.59-1-1.82h0l-14.33-2c-.85,.04-1.59,.61-1.83,1.43l-7.15,27.89h0Z" fill="#fff"></path>
        <path d="M580.16,239.06c-.09,0-.18,0-.28-.02l-14.28-1.94h-.22l-.1-.02c-.46-.13-.84-.43-1.07-.84s-.29-.89-.17-1.35l7.15-27.88c.31-1.04,1.23-1.76,2.29-1.81l14.42,2c1.11,.32,1.71,1.41,1.41,2.45l-7.08,27.78c-.24,.96-1.11,1.62-2.08,1.62h.01Zm-14.47-2.95l14.33,1.95c.57,.07,1.11-.29,1.26-.86l7.08-27.8c.15-.53-.14-1.07-.66-1.22l-14.26-1.98c-.55,.03-1.1,.46-1.28,1.08l-7.15,27.88c-.06,.2-.03,.41,.07,.59,.1,.18,.27,.31,.47,.37h.14Z" fill="#002346"></path>
      </g>
      <g>
        <path d="M573.23,207.23l-7.09,28.08c-.23,.55,.02,1.19,.57,1.43,.12,.05,.24,.08,.37,.09l12.15,1.65c.81,.12,2.35-.13,2.57-.91l7.16-28.19c.22-.8-1.09-1.62-2-1.74l-12.14-1.67c-.78-.07-1.48,.49-1.59,1.26h0Z" fill="#e6e7e8"></path>
        <path d="M579.65,239c-.18,0-.35,0-.49-.03l-12.14-1.65c-.15,0-.33-.05-.5-.12-.8-.35-1.17-1.29-.84-2.08l7.06-27.99c.16-1.02,1.09-1.74,2.12-1.66l12.17,1.67c.72,.09,1.74,.58,2.21,1.28,.23,.35,.31,.73,.21,1.09l-7.16,28.18c-.28,.99-1.67,1.31-2.63,1.31h-.01Zm-4.97-32.54c-.46,0-.88,.35-.95,.84v.05l-7.1,28.08c-.15,.37,0,.72,.29,.85,.06,.03,.13,.04,.21,.05l12.18,1.65c.79,.12,1.92-.19,2.02-.55l7.16-28.18c.02-.08,0-.17-.08-.28-.25-.38-.95-.77-1.51-.84l-12.14-1.67h-.08Z" fill="#002346"></path>
      </g>
      <g>
        <path d="M588.3,232.68l-.61-7.29c-.14-1.26-1.02-2.31-2.23-2.67l-4.42-1.32c-2.08-.62-4.28,.57-4.89,2.66l-1.83,6.26c-.33,1.13-.02,2.35,.81,3.19l1.93,1.93-.05,.05s-.75,3.48,.44,6.29c-2.84,5.07-5.88,10.03-9.1,14.87-1.73,2.43-3.38,4.86-5.25,6.78-7.15-11.9-13.63-27.56-19.43-40.77l-.13-.06c-5.53-11.8-22.65-3.74-17.21,7.94,5.53,10.93,11.25,21.54,17.64,32,3.52,5.25,6.62,11.37,12.15,15.57,10.79,6.76,19.11-7.43,23-15.07,3.76-7.32,3.45-5.6,6.17-13.37,.05-.15,1.98-5.26,3.04-8.09,.45-1.2,.61-2.47,.48-3.75l-.52-5.17v.02Z" fill="#f2b3c1"></path>
        <path d="M561.81,280.39c-1.99,0-3.98-.62-5.95-1.85-4.48-3.4-7.34-7.94-10.12-12.33-.73-1.15-1.45-2.29-2.18-3.39-5.78-9.46-11.39-19.64-17.67-32.05-2.96-6.35,.37-11.42,4.72-13.45,4.31-2.02,10.29-1.33,13.31,4.91l.14,.06,.08,.17c.85,1.92,1.71,3.9,2.58,5.91,4.94,11.34,10.52,24.17,16.49,34.24,1.46-1.59,2.79-3.47,4.19-5.45l.56-.79c3.15-4.73,6.17-9.65,8.95-14.62-.97-2.52-.55-5.41-.41-6.17l-1.71-1.71c-.96-.96-1.32-2.38-.94-3.68l1.83-6.26c.33-1.14,1.09-2.08,2.13-2.65,1.04-.57,2.24-.69,3.38-.35l4.42,1.32c1.41,.42,2.42,1.63,2.58,3.09l.61,7.3,.52,5.16c.14,1.36-.03,2.7-.51,3.97-.62,1.65-1.53,4.08-2.2,5.84-.47,1.24-.81,2.15-.84,2.23-1.94,5.54-2.37,6.32-3.78,8.89-.59,1.08-1.33,2.42-2.42,4.55-5.01,9.84-9.96,15.32-15.12,16.75-.88,.24-1.76,.36-2.64,.36h0Zm-26.75-63.07c-1.41,0-2.79,.33-4.03,.91-3.91,1.83-6.9,6.39-4.24,12.11,6.26,12.38,11.86,22.53,17.61,31.95,.73,1.09,1.45,2.23,2.19,3.39,2.73,4.31,5.54,8.78,9.84,12.04,2.55,1.6,5.17,2.05,7.75,1.34,4.88-1.35,9.62-6.66,14.5-16.24,1.1-2.14,1.84-3.49,2.43-4.57,1.42-2.58,1.8-3.27,3.71-8.73,.02-.06,.37-.99,.85-2.26,.67-1.76,1.58-4.19,2.2-5.84,.42-1.13,.57-2.32,.45-3.52l-.52-5.18-.61-7.29c-.12-1.05-.85-1.93-1.87-2.23l-4.42-1.32c-.88-.26-1.81-.16-2.61,.27-.81,.44-1.39,1.17-1.65,2.05l-1.83,6.26c-.28,.96-.02,1.99,.69,2.7l2.25,2.26-.26,.3c-.11,.62-.56,3.53,.43,5.87l.1,.23-.12,.21c-2.83,5.06-5.9,10.07-9.12,14.91l-.57,.8c-1.57,2.22-3.05,4.31-4.74,6.05l-.45,.47-.33-.56c-6.12-10.2-11.84-23.33-16.88-34.92-.85-1.95-1.68-3.86-2.5-5.73l-.12-.06-.08-.17c-1.85-3.94-4.98-5.5-8.03-5.5h-.02Z" fill="#002346"></path>
      </g>
      <g>
        <path d="M448.64,93.77H199.55c-14.04,.13-25.32,11.62-25.2,25.66V646.95c-.14,14.06,11.14,25.58,25.2,25.72h249.09c14.06-.13,25.35-11.62,25.23-25.68V119.45c.12-14.06-11.17-25.55-25.23-25.68Zm9.47,537.33c0,13.5-10.11,24.41-22.58,24.41H212.7c-12.5,0-22.61-10.91-22.61-24.41V138.89c0-27.51,10.11-28.85,22.61-28.85h44.64c2.58,0,4.71,3,4.71,6.61v1.54c0,8.56,4.62,8.59,10.43,8.59h103.23c5.8,0,10.47,0,10.47-8.59v-1.52c0-3.65,2.09-6.61,4.72-6.61h44.64c12.47,0,22.59,3.67,22.59,28.85l-.02,492.19h0Z" fill="#ffffffff"></path>
        <path d="M199.55,673.17c-6.94-.07-13.43-2.84-18.29-7.79-4.85-4.95-7.49-11.5-7.41-18.43V119.43c-.12-14.29,11.4-26.03,25.69-26.16h249.1c14.31,.13,25.85,11.88,25.73,26.18V646.99c.12,14.3-11.42,26.05-25.73,26.18H199.55Zm0-578.9c-13.74,.13-24.82,11.41-24.7,25.16V646.95c-.07,6.67,2.46,12.97,7.13,17.73s10.91,7.42,17.57,7.49h249.09c13.75-.13,24.84-11.42,24.73-25.18V119.45c.12-13.76-10.98-25.06-24.73-25.18H199.55Zm235.98,561.74H212.7c-12.74,0-23.11-11.17-23.11-24.91V138.89c0-27.24,9.58-29.35,23.11-29.35h44.64c2.87,0,5.21,3.19,5.21,7.11v1.54c0,8.09,4.17,8.09,9.93,8.09h103.23c5.79,0,9.97,0,9.97-8.09v-1.52c0-3.99,2.29-7.11,5.22-7.11h44.64c13.86,0,23.09,4.99,23.09,29.35l-.02,492.19h0c0,13.74-10.35,24.91-23.08,24.91ZM212.7,110.54c-12.95,0-22.11,2.03-22.11,28.35v492.21c0,13.18,9.92,23.91,22.11,23.91h222.83c12.17,0,22.08-10.73,22.08-23.91l.02-492.19c0-26.16-11.4-28.35-22.09-28.35h-44.64c-2.33,0-4.22,2.74-4.22,6.11v1.52c0,9.09-5.08,9.09-10.97,9.09h-103.23c-5.62,0-10.93,0-10.93-9.09v-1.54c0-3.31-1.93-6.11-4.21-6.11h-44.64Z" fill="#002346"></path>
      </g>
      <path d="M458.11,138.89v492.21c0,13.5-10.11,24.41-22.58,24.41H212.7c-12.5,0-22.61-10.91-22.61-24.41V138.89c0-27.51,10.11-28.85,22.61-28.85h44.64c2.58,0,4.71,3,4.71,6.61v1.54c0,8.56,4.62,8.59,10.43,8.59h103.23c5.8,0,10.47,0,10.47-8.59v-1.52c0-3.65,2.09-6.61,4.72-6.61h44.64c12.48-.02,22.57,3.61,22.57,28.83Z" fill="#fff"></path>
      <g>
        <path d="M458.11,138.87v492.23c0,13.5-10.11,24.41-22.58,24.41H212.7c-12.5,0-22.61-10.91-22.61-24.41V138.87c0-27.49,10.11-28.83,22.61-28.83h44.64c2.58,0,4.71,3,4.71,6.61v1.54c0,8.57,4.62,8.6,10.43,8.6h103.23c5.8,0,10.47,0,10.47-8.6v-1.52c0-3.65,2.09-6.61,4.72-6.61h44.64c12.48-.02,22.57,3.61,22.57,28.81Z" fill="#fff"></path>
        <path d="M435.53,656.01H212.7c-12.74,0-23.11-11.17-23.11-24.91V138.87c0-27.23,9.58-29.33,23.11-29.33h44.64c2.87,0,5.21,3.19,5.21,7.11v1.54c0,8.1,4.17,8.1,9.93,8.1h103.23c5.79,0,9.97,0,9.97-8.1v-1.52c0-3.99,2.29-7.11,5.22-7.11h44.64c5.53,0,11.81,.59,16.35,5.12,4.52,4.52,6.72,12.43,6.72,24.19v492.23c0,13.74-10.35,24.91-23.08,24.91h0ZM212.7,110.54c-12.95,0-22.11,2.03-22.11,28.33v492.23c0,13.18,9.92,23.91,22.11,23.91h222.83c12.17,0,22.08-10.73,22.08-23.91V138.87c0-11.48-2.1-19.16-6.43-23.48-4.28-4.27-10.32-4.86-15.64-4.83h-44.64c-2.33,0-4.22,2.74-4.22,6.11v1.52c0,9.1-5.08,9.1-10.97,9.1h-103.23c-5.62,0-10.93,0-10.93-9.1v-1.54c0-3.31-1.93-6.11-4.21-6.11h-44.64Z" fill="#002346"></path>
      </g>
      <g>
        <path d="M458.11,138.89v42.5H190.11v-42.5c0-27.51,10.11-28.85,22.61-28.85h44.64c2.58,0,4.71,3,4.71,6.61v1.54c0,8.56,4.62,8.59,10.43,8.59h103.21c5.8,0,10.47,0,10.47-8.59v-1.52c0-3.65,2.09-6.61,4.72-6.61h44.64c12.48-.02,22.57,3.61,22.57,28.83Z" fill="#fffff"></path>
        <path d="M458.61,181.89H189.61v-43c0-27.24,9.58-29.35,23.11-29.35h44.64c2.87,0,5.21,3.19,5.21,7.11v1.54c0,8.09,4.17,8.09,9.93,8.09h103.21c5.79,0,9.97,0,9.97-8.09v-1.52c0-3.99,2.29-7.11,5.22-7.11h44.64c5.56,.02,11.81,.59,16.34,5.12,4.53,4.52,6.73,12.44,6.73,24.21v43h0Zm-268-1H457.61v-42c0-11.49-2.1-19.18-6.43-23.5-4.28-4.27-10.3-4.83-15.63-4.83h-44.64c-2.33,0-4.22,2.74-4.22,6.11v1.52c0,9.09-5.08,9.09-10.97,9.09h-103.21c-5.62,0-10.93,0-10.93-9.09v-1.54c0-3.31-1.93-6.11-4.21-6.11h-44.64c-12.95,0-22.11,2.03-22.11,28.35v42h-.01Z" fill="#002346"></path>
      </g>
      <g>
        <path d="M338.18,116.12h-28.16c-.96,0-1.73-.78-1.74-1.74h0c.02-.95,.79-1.7,1.74-1.71h28.15c.96,0,1.73,.76,1.74,1.72h0c0,.97-.76,1.74-1.72,1.75h-.02v-.02h.01Z" fill="#fff"></path>
        <path d="M337.39,116.64v-.02h-27.37c-1.23,0-2.23-1.01-2.24-2.24,.03-1.24,1.01-2.21,2.24-2.21h28.15c1.25-.02,2.23,.99,2.24,2.22,0,.61-.23,1.17-.64,1.59-.42,.42-.98,.66-1.57,.66h-.81Zm.79-3.47h-28.16c-.68,0-1.22,.54-1.24,1.22,0,.67,.56,1.22,1.24,1.23h28.37c.25-.04,.48-.16,.66-.35,.23-.23,.36-.54,.35-.87,0-.69-.55-1.23-1.23-1.23h.01Z" fill="#002346"></path>
      </g>
      <g>
        <rect x="208.28" y="202.59" width="231.67" height="58.23" fill="#fff"></rect>
        <path d="M440.45,261.32H207.78v-59.23h232.67v59.23Zm-231.67-1h230.67v-57.23H208.78v57.23h0Z" fill="#002346"></path>
      </g>
      <g>
        <path d="M242.11,252.06c-11.25-.03-20.34-9.18-20.31-20.43s9.18-20.34,20.43-20.31c11.22,.03,20.3,9.13,20.31,20.35,0,11.25-9.13,20.37-20.38,20.36h-.05v.03h0Zm0-37.88c-9.68,0-17.53,7.84-17.54,17.52,0,9.68,7.84,17.53,17.52,17.54,9.68,0,17.53-7.83,17.54-17.51h0c0-9.68-7.84-17.53-17.52-17.55Z" fill="#fff"></path>
        <path d="M242.11,252.56c-11.51-.03-20.84-9.42-20.81-20.93,.02-5.57,2.2-10.81,6.16-14.74,3.94-3.92,9.16-6.07,14.71-6.07h.06c11.46,.03,20.8,9.39,20.81,20.85,0,5.58-2.18,10.82-6.12,14.76-3.84,3.83-8.9,5.99-14.31,6.1h0l-.5,.03h0Zm.06-40.74c-5.28,0-10.26,2.05-14.01,5.78-3.76,3.74-5.85,8.73-5.86,14.03-.03,10.79,8.59,19.62,19.31,19.92v-.02h.51c5.35,0,10.34-2.06,14.09-5.81s5.82-8.74,5.83-14.05c-.01-10.91-8.9-19.82-19.81-19.85h-.06Zm-.07,37.92h0c-4.82,0-9.34-1.88-12.75-5.29-3.4-3.41-5.28-7.94-5.27-12.75,0-9.94,8.09-18.02,18.03-18.02h0c9.94,.02,18.02,8.11,18.02,18.05-.01,9.93-8.1,18.01-18.03,18.01h0Zm0-35.06c-9.39,0-17.02,7.63-17.03,17.02,0,4.55,1.77,8.83,4.98,12.04,3.21,3.22,7.49,4.99,12.04,4.99h0c9.38,0,17.02-7.63,17.03-17.01,0-9.38-7.64-17.03-17.02-17.05h0Z" fill="#002346"></path>
      </g>
      <g>
        <polygon points="251.99 224.04 249.77 221.82 242.12 229.48 234.46 221.82 232.24 224.04 239.9 231.7 232.25 239.34 234.48 241.56 242.12 233.92 249.76 241.55 251.98 239.33 244.34 231.7 251.99 224.04" fill="#fff"></polygon>
        <path d="M234.47,242.27l-2.93-2.93,7.64-7.64-7.66-7.66,2.93-2.93,7.66,7.66,7.65-7.65,2.93,2.93-7.65,7.65,7.64,7.64-2.93,2.93-7.64-7.64-7.64,7.64Zm-1.51-2.93l1.51,1.51,7.64-7.64,7.64,7.64,1.51-1.51-7.64-7.64,7.65-7.65-1.51-1.51-7.65,7.65-7.66-7.66-1.51,1.51,7.66,7.66-7.64,7.64Z" fill="#002346"></path>
      </g>
      <g>
        <rect x="277.44" y="216.18" width="149.02" height="2.82" fill="#fff"></rect>
        <path d="M426.96,219.5h-150.02v-3.82h150.02v3.82h0Zm-149.02-1h148.02v-1.82h-148.02v1.82Z" fill="#002346"></path>
      </g>
      <g>
        <rect x="277.44" y="227.43" width="149.02" height="2.82" fill="#fff"></rect>
        <path d="M426.96,230.75h-150.02v-3.82h150.02v3.82h0Zm-149.02-1h148.02v-1.82h-148.02v1.82Z" fill="#002346"></path>
      </g>
      <g>
        <rect x="277.44" y="233.08" width="121.65" height="2.82" fill="#fff"></rect>
        <path d="M399.59,236.4h-122.65v-3.82h122.65v3.82Zm-121.65-1h120.65v-1.82h-120.65v1.82Z" fill="#002346"></path>
      </g>
      <g>
        <rect x="277.44" y="238.75" width="80.74" height="2.82" fill="#fff"></rect>
        <path d="M358.68,242.07h-81.74v-3.82h81.74v3.82Zm-80.74-1h79.74v-1.82h-79.74v1.82Z" fill="#002346"></path>
      </g>
      <g>
        <rect x="277.44" y="244.41" width="121.65" height="2.82" fill="#fff"></rect>
        <path d="M399.59,247.73h-122.65v-3.82h122.65v3.82Zm-121.65-1h120.65v-1.82h-120.65v1.82Z" fill="#002346"></path>
      </g>
      <g>
        <rect x="208.28" y="351.95" width="231.67" height="58.23" fill="#fff"></rect>
        <path d="M440.45,410.68H207.78v-59.23h232.67v59.23Zm-231.67-1h230.67v-57.23H208.78v57.23h0Z" fill="#002346"></path>
      </g>
      <g>
        <path d="M242.11,401.4c-11.27-.01-20.4-9.16-20.38-20.43,0-11.27,9.16-20.4,20.43-20.39s20.4,9.16,20.38,20.43c-.01,11.25-9.13,20.37-20.38,20.38h-.05Zm0-37.87c-9.69-.01-17.55,7.83-17.56,17.52s7.83,17.55,17.52,17.56,17.55-7.83,17.56-17.52h0c0-9.69-7.84-17.54-17.52-17.56Z" fill="#fff"></path>
        <path d="M242.16,401.9h-.05c-5.59,0-10.83-2.19-14.78-6.14-3.94-3.95-6.11-9.21-6.11-14.79s2.19-10.83,6.14-14.78c3.95-3.94,9.19-6.11,14.77-6.11h.03c11.53,.01,20.9,9.41,20.88,20.94-.01,11.5-9.38,20.87-20.88,20.88Zm-.05-1h.05c10.95-.01,19.87-8.93,19.89-19.89,.01-10.98-8.91-19.92-19.89-19.93h-.02c-5.31,0-10.3,2.06-14.06,5.81-3.77,3.76-5.84,8.75-5.85,14.07,0,10.98,8.91,19.92,19.89,19.93h0Zm-.02-1.79h-.02c-9.95-.01-18.03-8.11-18.02-18.06,0-9.94,8.1-18.02,18.04-18.02h.02c9.94,.02,18.02,8.11,18.02,18.05,0,4.83-1.89,9.36-5.3,12.76-3.41,3.4-7.93,5.27-12.74,5.27Zm0-35.08c-9.39,0-17.03,7.63-17.04,17.02,0,9.4,7.62,17.05,17.02,17.06h.02c9.39,0,17.03-7.63,17.04-17.02,0-9.39-7.64-17.04-17.02-17.06h-.02Z" fill="#002346"></path>
      </g>
      <g>
        <polygon points="251.98 388.69 244.34 381.04 251.98 373.4 249.76 371.18 242.12 378.82 234.46 371.17 232.24 373.39 239.9 381.04 232.24 388.7 234.46 390.92 242.12 383.26 249.76 390.91 251.98 388.69" fill="#fff"></polygon>
        <path d="M234.46,391.62l-2.93-2.93,7.65-7.65-7.65-7.65,2.93-2.93,7.65,7.65,7.64-7.64,2.93,2.93-7.64,7.64,7.64,7.64-2.93,2.93-7.64-7.64-7.65,7.65Zm-1.51-2.93l1.51,1.51,7.65-7.65,7.64,7.64,1.51-1.51-7.64-7.64,7.64-7.64-1.51-1.51-7.64,7.64-7.65-7.65-1.51,1.51,7.65,7.65-7.65,7.65Z" fill="#002346"></path>
      </g>
      <g>
        <rect x="277.44" y="365.52" width="149.02" height="2.82" fill="#fff"></rect>
        <path d="M426.96,368.84h-150.02v-3.82h150.02v3.82h0Zm-149.02-1h148.02v-1.82h-148.02v1.82Z" fill="#002346"></path>
      </g>
      <g>
        <rect x="277.44" y="376.78" width="149.02" height="2.82" fill="#fff"></rect>
        <path d="M426.96,380.1h-150.02v-3.82h150.02v3.82h0Zm-149.02-1h148.02v-1.82h-148.02v1.82Z" fill="#002346"></path>
      </g>
      <g>
        <rect x="277.44" y="382.44" width="121.65" height="2.82" fill="#fff"></rect>
        <path d="M399.59,385.76h-122.65v-3.82h122.65v3.82Zm-121.65-1h120.65v-1.82h-120.65v1.82Z" fill="#002346"></path>
      </g>
      <g>
        <rect x="277.44" y="388.1" width="80.74" height="2.82" fill="#fff"></rect>
        <path d="M358.68,391.42h-81.74v-3.82h81.74v3.82Zm-80.74-1h79.74v-1.82h-79.74v1.82Z" fill="#002346"></path>
      </g>
      <g>
        <rect x="277.44" y="393.77" width="121.65" height="2.82" fill="#fff"></rect>
        <path d="M399.59,397.09h-122.65v-3.82h122.65v3.82Zm-121.65-1h120.65v-1.82h-120.65v1.82Z" fill="#002346"></path>
      </g>
      <g>
        <rect x="208.28" y="427.59" width="231.67" height="58.23" fill="#fff"></rect>
        <path d="M440.45,486.32H207.78v-59.23h232.67v59.23Zm-231.67-1h230.67v-57.23H208.78v57.23h0Z" fill="#002346"></path>
      </g>
      <g>
        <path d="M242.11,477.06c-11.26-.03-20.36-9.18-20.32-20.43,.03-11.26,9.18-20.36,20.43-20.32,11.26,.03,20.36,9.18,20.32,20.43-.03,11.21-9.11,20.29-20.32,20.32h-.11Zm0-37.88c-9.68,0-17.53,7.84-17.54,17.52s7.84,17.53,17.52,17.54c9.68,0,17.53-7.83,17.54-17.51v-.06c-.04-9.65-7.87-17.45-17.52-17.47v-.02Z" fill="#fff"></path>
        <path d="M242.22,477.56h-.11c-5.58-.02-10.81-2.2-14.75-6.16s-6.09-9.2-6.08-14.78,2.2-10.81,6.16-14.75,9.2-6.06,14.78-6.08c5.58,.02,10.81,2.2,14.75,6.16,3.93,3.95,6.09,9.2,6.08,14.78-.03,11.45-9.37,20.79-20.82,20.82h0Zm-.11-.99h.11c10.9-.03,19.8-8.92,19.83-19.83,.01-5.31-2.04-10.31-5.78-14.07-3.74-3.76-8.73-5.85-14.04-5.86h-.05c-5.29,0-10.27,2.05-14.02,5.78-3.76,3.74-5.85,8.73-5.86,14.04s2.04,10.31,5.78,14.07,8.73,5.85,14.04,5.86h0Zm0-1.81h0c-4.82,0-9.34-1.88-12.75-5.29-3.4-3.41-5.28-7.94-5.27-12.75,0-9.94,8.09-18.02,18.03-18.02h0l.5,.03c9.66,.28,17.48,8.24,17.52,17.96-.01,10-8.1,18.07-18.03,18.07Zm-.49-35.05c-9.16,.26-16.53,7.79-16.54,17.01,0,4.55,1.77,8.83,4.98,12.04,3.21,3.22,7.49,4.99,12.04,4.99h0c9.38,0,17.02-7.63,17.03-17.01-.04-9.4-7.68-17.01-17.02-17.03h-.49Z" fill="#002346"></path>
      </g>
      <g>
        <polygon points="251.98 464.34 244.33 456.68 251.96 449.05 249.74 446.83 242.11 454.46 234.47 446.82 232.25 449.04 239.89 456.68 232.23 464.34 234.45 466.56 242.11 458.91 249.76 466.56 251.98 464.34" fill="#fff"></polygon>
        <path d="M234.45,467.27l-2.93-2.93,7.66-7.66-7.64-7.64,2.93-2.93,7.64,7.64,7.64-7.64,2.93,2.93-7.64,7.64,7.65,7.65-2.93,2.93-7.65-7.65-7.66,7.66Zm-1.51-2.93l1.51,1.51,7.66-7.66,7.65,7.65,1.51-1.51-7.65-7.65,7.64-7.64-1.51-1.51-7.64,7.64-7.64-7.64-1.51,1.51,7.64,7.64-7.66,7.66Z" fill="#002346"></path>
      </g>
      <g>
        <rect x="277.44" y="441.18" width="149.02" height="2.82" fill="#fff"></rect>
        <path d="M426.96,444.5h-150.02v-3.82h150.02v3.82h0Zm-149.02-1h148.02v-1.82h-148.02v1.82Z" fill="#002346"></path>
      </g>
      <g>
        <rect x="277.44" y="452.43" width="149.02" height="2.82" fill="#fff"></rect>
        <path d="M426.96,455.75h-150.02v-3.82h150.02v3.82h0Zm-149.02-1h148.02v-1.82h-148.02v1.82Z" fill="#002346"></path>
      </g>
      <g>
        <rect x="277.44" y="458.1" width="121.65" height="2.82" fill="#fff"></rect>
        <path d="M399.59,461.42h-122.65v-3.82h122.65v3.82Zm-121.65-1h120.65v-1.82h-120.65v1.82Z" fill="#002346"></path>
      </g>
      <g>
        <rect x="277.44" y="463.75" width="80.74" height="2.82" fill="#fff"></rect>
        <path d="M358.68,467.07h-81.74v-3.82h81.74v3.82Zm-80.74-1h79.74v-1.82h-79.74v1.82Z" fill="#002346"></path>
      </g>
      <g>
        <rect x="277.44" y="469.41" width="121.65" height="2.82" fill="#fff"></rect>
        <path d="M399.59,472.73h-122.65v-3.82h122.65v3.82Zm-121.65-1h120.65v-1.82h-120.65v1.82Z" fill="#002346"></path>
      </g>
      <g>
        <rect x="208.28" y="503.23" width="231.67" height="58.23" fill="#fff"></rect>
        <path d="M440.45,561.96H207.78v-59.23h232.67v59.23Zm-231.67-1h230.67v-57.23H208.78v57.23h0Z" fill="#002346"></path>
      </g>
      <g>
        <path d="M242.11,552.67c-11.27-.01-20.4-9.16-20.38-20.43,0-11.27,9.16-20.4,20.43-20.39,11.27,.01,20.4,9.16,20.38,20.43-.01,11.25-9.13,20.37-20.38,20.38h-.05Zm0-37.87c-9.69-.01-17.55,7.83-17.56,17.52s7.83,17.55,17.52,17.56,17.55-7.83,17.56-17.52h0c-.01-9.68-7.85-17.52-17.52-17.54v-.02Z" fill="#fff"></path>
        <path d="M242.16,553.17h-.05c-5.59,0-10.83-2.19-14.78-6.14-3.94-3.95-6.11-9.21-6.11-14.79s2.19-10.83,6.14-14.78c3.95-3.94,9.19-6.11,14.77-6.11h.03c5.59,0,10.83,2.19,14.78,6.14,3.94,3.95,6.11,9.21,6.11,14.79-.01,11.5-9.38,20.87-20.88,20.88h0Zm-.05-.99h.05c10.95-.01,19.87-8.93,19.89-19.89,0-5.32-2.06-10.32-5.81-14.09s-8.75-5.84-14.07-5.85h-.02c-5.31,0-10.3,2.06-14.06,5.81-3.77,3.76-5.84,8.75-5.85,14.07,0,5.32,2.06,10.32,5.81,14.09s8.75,5.84,14.07,5.85h0Zm-.02-1.79h-.02c-9.95-.01-18.03-8.11-18.02-18.06,0-9.94,8.1-18.02,18.04-18.02h.02l.5,.03c9.69,.28,17.51,8.26,17.52,18.02,0,4.83-1.89,9.36-5.3,12.76-3.41,3.4-7.93,5.27-12.74,5.27h0Zm-.48-35.07c-9.17,.25-16.55,7.79-16.56,17.01,0,9.4,7.62,17.05,17.02,17.06h.02c4.54,0,8.82-1.77,12.03-4.98,3.22-3.21,5-7.49,5-12.04-.01-9.38-7.65-17.02-17.02-17.04h-.49Z" fill="#002346"></path>
      </g>
      <g>
        <polygon points="251.99 539.96 244.36 532.33 251.99 524.71 249.77 522.49 242.14 530.11 234.48 522.45 232.26 524.67 239.92 532.33 232.25 540 234.47 542.22 242.14 534.55 249.77 542.18 251.99 539.96" fill="#fff"></polygon>
        <path d="M234.47,542.93l-2.93-2.93,7.67-7.67-7.66-7.66,2.93-2.93,7.66,7.66,7.63-7.63,2.93,2.93-7.63,7.63,7.63,7.63-2.93,2.93-7.63-7.63-7.67,7.67Zm-1.51-2.93l1.51,1.51,7.67-7.67,7.63,7.63,1.51-1.51-7.63-7.63,7.63-7.63-1.51-1.51-7.63,7.63-7.66-7.66-1.51,1.51,7.66,7.66-7.67,7.67Z" fill="#002346"></path>
      </g>
      <g>
        <rect x="277.44" y="516.82" width="149.02" height="2.82" fill="#fff"></rect>
        <path d="M426.96,520.14h-150.02v-3.82h150.02v3.82h0Zm-149.02-1h148.02v-1.82h-148.02v1.82Z" fill="#002346"></path>
      </g>
      <g>
        <rect x="277.44" y="528.07" width="149.02" height="2.82" fill="#fff"></rect>
        <path d="M426.96,531.39h-150.02v-3.82h150.02v3.82h0Zm-149.02-1h148.02v-1.82h-148.02v1.82Z" fill="#002346"></path>
      </g>
      <g>
        <rect x="277.44" y="533.74" width="121.65" height="2.82" fill="#fff"></rect>
        <path d="M399.59,537.06h-122.65v-3.82h122.65v3.82Zm-121.65-1h120.65v-1.82h-120.65v1.82Z" fill="#002346"></path>
      </g>
      <g>
        <rect x="277.44" y="539.4" width="80.74" height="2.82" fill="#fff"></rect>
        <path d="M358.68,542.72h-81.74v-3.82h81.74v3.82Zm-80.74-1h79.74v-1.82h-79.74v1.82Z" fill="#002346"></path>
      </g>
      <g>
        <rect x="277.44" y="545.05" width="121.65" height="2.82" fill="#fff"></rect>
        <path d="M399.59,548.37h-122.65v-3.82h122.65v3.82Zm-121.65-1h120.65v-1.82h-120.65v1.82Z" fill="#002346"></path>
      </g>
      <g>
        <rect x="200.68" y="275.17" width="246.86" height="62.05" fill="#fffff"></rect>
        <path d="M448.04,337.72H200.18v-63.05h247.86v63.05h0Zm-246.86-1h245.86v-61.05H201.18v61.05h0Z" fill="#002346"></path>
      </g>
      <path d="M452.94,342.88H195.29v-73.38H452.94v73.38Zm-256.11-1.54h254.57v-70.3H196.83v70.3h0Z" fill="#002346"></path>
      <polygon points="233.73 317.4 225.27 308.86 228.12 306.04 233.05 311.05 243.3 294.98 246.65 297.13 233.73 317.4" fill="#fff"></polygon>
      <path d="M236.73,327.87c-11.98,0-21.69-9.71-21.69-21.69s9.71-21.69,21.69-21.69,21.69,9.71,21.69,21.69h0c-.01,11.97-9.72,21.68-21.69,21.69h0Zm0-40.36c-10.32,0-18.69,8.36-18.7,18.68,0,10.32,8.36,18.69,18.68,18.7,10.32,0,18.69-8.36,18.7-18.68h0c0-10.33-8.35-18.69-18.67-18.7h0Z" fill="#fff"></path>
      <rect x="274.38" y="289.63" width="158.81" height="3" fill="#fff"></rect>
      <rect x="274.38" y="301.63" width="158.81" height="3" fill="#fff"></rect>
      <rect x="274.38" y="307.66" width="129.64" height="3" fill="#fff"></rect>
      <rect x="274.38" y="313.69" width="86.03" height="3" fill="#fff"></rect>
      <rect x="274.38" y="319.73" width="129.64" height="3" fill="#fff"></rect>
      <g>
        <path d="M306.53,620.89c.01,2.11-1.69,3.83-3.8,3.84s-3.83-1.69-3.84-3.8,1.69-3.83,3.8-3.84h0c2.1-.01,3.82,1.69,3.83,3.79h0s.01,.01,.01,.01Z" fill="#fff"></path>
        <path d="M302.71,625.23c-1.15,0-2.22-.44-3.04-1.25s-1.28-1.89-1.28-3.05,.44-2.24,1.25-3.06,1.89-1.28,3.05-1.28h.02c1.15,0,2.23,.44,3.04,1.25,.82,.81,1.27,1.89,1.28,3.04h0c0,1.16-.44,2.25-1.25,3.07s-1.89,1.28-3.05,1.28h-.02Zm.01-7.64h-.02c-.9,0-1.73,.35-2.35,.98s-.96,1.47-.96,2.35,.35,1.72,.98,2.34c.63,.62,1.45,.93,2.35,.96,.89,0,1.72-.35,2.34-.98s.96-1.47,.96-2.35h0c0-.89-.35-1.72-.98-2.35s-1.45-.96-2.33-.96h0Z" fill="#002346"></path>
      </g>
      <g>
        <circle cx="324.11" cy="620.89" r="6.25" fill="#fff"></circle>
        <path d="M324.11,627.64c-3.72,0-6.75-3.03-6.75-6.75s3.03-6.75,6.75-6.75,6.75,3.03,6.75,6.75-3.03,6.75-6.75,6.75Zm0-12.5c-3.17,0-5.75,2.58-5.75,5.75s2.58,5.75,5.75,5.75,5.75-2.58,5.75-5.75-2.58-5.75-5.75-5.75Z" fill="#002346"></path>
      </g>
      <g>
        <path d="M349.31,620.89c.01,2.11-1.69,3.83-3.8,3.84s-3.83-1.69-3.84-3.8,1.69-3.83,3.8-3.84h0c2.11,0,3.82,1.69,3.83,3.8h.01Z" fill="#fff"></path>
        <path d="M345.49,625.23c-1.15,0-2.22-.44-3.04-1.25s-1.27-1.89-1.28-3.05c-.01-2.38,1.92-4.33,4.3-4.34h.01c2.38,0,4.32,1.93,4.33,4.3h0c.01,2.38-1.92,4.33-4.3,4.34h-.02Zm0-7.64h0c-1.84,0-3.32,1.51-3.31,3.34,0,.89,.35,1.72,.98,2.34,.63,.62,1.45,.96,2.33,.96h.02c.89,0,1.72-.35,2.34-.98s.96-1.47,.96-2.35h0c0-1.82-1.5-3.3-3.32-3.3h0Z" fill="#002346"></path>
      </g>
      <g>
        <path d="M538.17,216.23c8.48,.53,22.68,27.26,22.68,27.26l-26,19.27s-4.64-39.44-4.64-39.5,7.96-7.03,7.96-7.03h0Z" fill="#fffff"></path>
        <path d="M534.45,263.67l-.1-.86c-3.09-26.31-4.64-39.5-4.64-39.56,0-.19,2.71-2.66,8.13-7.41l.16-.14h.21c8.66,.55,22.51,26.44,23.09,27.54l.2,.38-27.04,20.04h-.01Zm-3.72-40.21c.32,2.71,3.87,32.89,4.51,38.39l24.96-18.5c-1.75-3.22-14.27-25.74-21.87-26.6-2.79,2.44-6.76,5.93-7.61,6.71h0Z" fill="#002346"></path>
      </g>
      <g>
        <path d="M482.02,510.22l5.21,10s4.48-2.38,11.59-6.27c2-1.11,4.3-2.34,6.71-3.7,6.74-3.7,14.82-8.2,23.37-13l5.59-3.21c29.61-17,53.89-33.23,53.89-42.13,0-14.91-10.81-43.28-26.07-71.67-10.2-19-18.69-34.23-18.69-34.23l-36.26,22.2s12.35,16.51,25,34.69c14.76,21.21,29.93,44.65,26.46,47-2.65,1.78-16.14,12.33-31.05,24.13l-2.71,2.12c-8,6.37-16.35,13-23.52,18.65l-5.84,4.58-13.68,10.84h0Z" fill="#f2b3c1"></path>
        <path d="M487.02,520.89l-5.63-10.81,19.85-15.68c6.3-4.96,13.99-11.06,23.52-18.65l2.71-2.12c8.22-6.51,27.72-21.9,31.08-24.15,.04-.03,.18-.12,.25-.47,.49-2.62-3.78-12.69-26.84-45.83-12.5-17.96-24.87-34.51-24.99-34.68l-.33-.44,37.17-22.76,.25,.45c.08,.15,8.61,15.45,18.69,34.24,16.12,29.98,26.13,57.54,26.13,71.91,0,7.83-17.2,21.36-54.14,42.56l-5.59,3.21c-9.11,5.11-16.97,9.49-23.38,13-1.48,.84-2.93,1.63-4.29,2.37-.84,.46-1.66,.9-2.42,1.33-7.03,3.85-11.55,6.25-11.6,6.27l-.44,.24h0Zm-4.37-10.53l4.79,9.19c1.3-.69,5.38-2.88,11.14-6.03,.77-.43,1.58-.87,2.43-1.33,1.35-.74,2.8-1.53,4.28-2.37,6.41-3.52,14.27-7.89,23.37-13l5.59-3.21c36.09-20.72,53.64-34.36,53.64-41.7,0-14.21-9.97-41.58-26.01-71.43-9.11-16.97-16.95-31.09-18.43-33.77l-35.35,21.64c2.05,2.75,13.31,17.92,24.68,34.26,18.67,26.83,27.76,42.51,27,46.59-.09,.5-.32,.88-.67,1.11-2.35,1.58-13.65,10.36-31.02,24.11l-2.71,2.12c-9.52,7.58-17.22,13.68-23.52,18.65l-5.84,4.58-13.35,10.58h-.02Z" fill="#002346"></path>
      </g>
      <g>
        <path d="M466.02,386.59l7,21.3,1.42,4.38,10.67,32.4,1.21,3.72,7.05,21.42,8.17,24.92,3.78,11.53c0,1.3,.14,2.62,.23,3.89,3.59,55.06,32.27,127,32.27,127l10.2-2.76c-3.64-43.24-11.41-93.64-19.16-137.26-1.29-7.24-2.55-14.31-3.9-21.12-.72-3.89-1.42-7.57-2.1-11.21-1.48-7.79-2.88-15.07-4.26-21.89-.64-3.23-1.27-6.33-1.85-9.34-1.5-7.44-2.86-14.06-4.07-19.75-1.21-5.69-2.16-10.37-2.94-14-1.09-5.21-1.72-8.15-1.72-8.15l-42-5.08h0Z" fill="#f2b3c1"></path>
        <path d="M537.52,637.75l-.17-.41c-.29-.72-28.75-72.64-32.3-127.15l-.07-.96c-.08-.94-.15-1.92-.16-2.89l-39.52-120.34,43.13,5.22,.07,.35s.63,2.94,1.72,8.15c.39,1.79,.81,3.84,1.29,6.15,.49,2.36,1.04,4.98,1.65,7.85,1.14,5.36,2.47,11.83,4.07,19.76,.39,2.02,.8,4.07,1.22,6.18l.63,3.16c1.45,7.19,2.91,14.77,4.26,21.89l.8,4.24c.43,2.27,.86,4.58,1.31,6.98,1.35,6.81,2.59,13.76,3.9,21.12,9.59,53.99,16.04,100.19,19.17,137.31l.04,.42-11.03,2.99v-.02Zm-70.79-250.57l39.08,119.08c0,.95,.08,1.94,.15,2.89l.07,.97c3.4,52.2,29.74,120.47,32.07,126.44l9.37-2.53c-3.14-37.01-9.57-83.04-19.12-136.8-1.31-7.36-2.55-14.3-3.9-21.11-.44-2.4-.88-4.71-1.31-6.98l-.8-4.24c-1.35-7.12-2.8-14.7-4.26-21.88l-.63-3.17c-.42-2.11-.83-4.16-1.22-6.18-1.6-7.92-2.93-14.38-4.07-19.74-.61-2.88-1.16-5.5-1.65-7.86-.48-2.3-.91-4.35-1.29-6.14-.87-4.17-1.45-6.88-1.65-7.8l-40.86-4.94h.02Z" fill="#002346"></path>
      </g>
      <g>
        <path d="M494.38,499.53c1.32,0,.52,16.35,.52,16.35,0,0-10.06,10.21-12.2,20s-8.08,4.42-8.26-6.48c-.18-10.9-.29-19.22-.41-27s6.56-2.99,20.35-2.87h0Z" fill="#fffff"></path>
        <path d="M479.3,541.51c-.08,0-.15,0-.22-.01-2.77-.28-5.03-5.59-5.14-12.09-.12-7.01-.2-12.95-.28-18.36l-.13-8.64c-.03-1.98,.37-3.26,1.25-4.04,1.53-1.34,4.24-.95,8.34-.36,3.01,.44,6.75,.98,11.27,1.02,.19,0,.36,.08,.5,.23,1.17,1.23,.69,13.05,.51,16.65v.19l-.14,.14c-.1,.1-9.98,10.22-12.07,19.76-1.03,4.71-2.8,5.52-3.89,5.52h0Zm-1.34-43.05c-1.12,0-1.98,.18-2.52,.65-.65,.57-.94,1.61-.91,3.27l.13,8.64c.08,5.42,.17,11.36,.28,18.36,.12,6.99,2.54,10.94,4.24,11.11,1.22,.14,2.36-1.65,3.03-4.73,2.04-9.32,10.94-18.8,12.2-20.11,.33-6.93,.34-14.47-.2-15.64-4.51-.05-8.23-.59-11.24-1.03-1.99-.29-3.69-.54-5.01-.54v.02Z" fill="#002346"></path>
      </g>
      <g>
        <path d="M535.02,632.6c0-1.32,16.36-.29,16.36-.29,0,0,10,10.22,19.8,12.52,9.8,2.3,4.3,8.14-6.6,8.14h-27.1c-7.74,0-2.92-6.6-2.46-20.37h0Z" fill="#fffff"></path>
        <path d="M564.58,653.47h-27.1c-1.97,0-3.25-.42-4.01-1.31-1.33-1.56-.88-4.3-.2-8.45,.49-2.97,1.1-6.67,1.25-11.12,0-.18,.08-.36,.23-.5,1.23-1.16,13.06-.51,16.66-.28h.19l.13,.15c.1,.1,10.01,10.14,19.56,12.38,5.04,1.18,5.59,3.14,5.47,4.2-.32,2.76-5.67,4.93-12.18,4.93h0Zm-29.07-20.69c-.16,4.44-.77,8.12-1.25,11.09-.61,3.73-1.06,6.43-.03,7.64,.56,.66,1.59,.96,3.25,.96h27.1c7,0,10.99-2.35,11.19-4.05,.14-1.22-1.62-2.38-4.7-3.11-9.32-2.19-18.63-11.24-19.91-12.52-6.93-.43-14.48-.54-15.64-.02h0Z" fill="#002346"></path>
      </g>
      <g opacity=".7">
        <path d="M523.31,398.39l2.38,2.22,35.24-23.94-4.52-10.87c.06,3.83-.5,7.65-1.66,11.3-1.96,4.57-25.31,17.82-31.44,21.29Z" fill="#fff"></path>
      </g>
      <g>
        <path d="M560.83,376.72l-35.26,23.95-2.26-2.21-8-7.56v18.91l-48.67-8.73c-7.38-32.67-6.45-56.87-3.26-73.49,1.48-8.37,4.14-16.5,7.89-24.13h0l.62-6.17,65.85,6.84,.64,4.3,3.17,21.24,14.82,36.21,4.46,10.84h0Z" fill="#ffffffff"></path>
        <path d="M515.81,410.4l-49.58-8.89-.07-.32c-6.25-27.65-7.34-52.44-3.26-73.69,1.48-8.39,4.14-16.52,7.89-24.18l.66-6.58,66.73,6.93,3.86,25.86,19.41,47.37-35.93,24.41-2.55-2.5-7.15-6.76v18.35h0Zm-48.75-9.76l47.75,8.57v-19.47l10.82,10.29,34.59-23.49-4.31-10.46-14.85-36.33-3.75-25.16-64.96-6.75-.62,5.84c-3.73,7.59-6.37,15.67-7.85,24-4.04,21.04-2.97,45.59,3.18,72.97h0Z" fill="#002346"></path>
      </g>
      <g>
        <path d="M472.57,299.56c-15.22-3.47-.19-3.25-5.14-72-.32-3.48-.04-6.99,.82-10.38,1.61-5.57,7.02-9.14,12.77-8.45,2.65,.3,5,.57,5.53,.59,1.42,0,2.88,.1,4.35,.19,9.92,.41,19.81,1.53,29.57,3.35,2.41,.49,4.89,1.07,7.3,1.64,.78,.19,9.74,1.57,10.44,1.77,0,0,10.24,15.91,9.3,27.43-.52,6.43-2.7,11.16-2.88,26.58-.39,35,6.93,34-8.27,35l-63.79-5.72h0Z" fill="#fffff"></path>
        <path d="M536.39,305.78l-63.93-5.73c-8.21-1.87-8.05-3.1-6.73-12.65,1.26-9.16,3.62-26.2,1.2-59.81-.32-3.54-.04-7.09,.83-10.54,1.69-5.85,7.29-9.55,13.31-8.82l.62,.07c2.36,.27,4.4,.5,4.87,.52h0c1.28,0,2.64,.08,3.95,.17l.41,.03c9.9,.4,19.88,1.53,29.63,3.36,2.41,.49,4.84,1.06,7.32,1.64,.34,.08,2.54,.44,4.66,.78,3.26,.53,5.42,.88,5.8,.99l.18,.05,.1,.16c.42,.66,10.32,16.19,9.38,27.74-.18,2.16-.53,4.11-.94,6.36-.81,4.43-1.82,9.94-1.94,20.19-.13,11.4,.57,19.01,1.03,24.04,.49,5.31,.73,7.98-.55,9.48-1.24,1.46-3.69,1.61-8.56,1.93l-.66,.04h.02Zm-63.74-6.71l63.76,5.72,.58-.04c4.44-.29,6.89-.45,7.86-1.58,1.01-1.18,.78-3.71,.32-8.74-.46-5.05-1.16-12.69-1.03-24.14,.12-10.33,1.14-15.89,1.95-20.36,.41-2.22,.76-4.14,.93-6.26,.86-10.59-8.03-25.21-9.11-26.95-.75-.15-3.37-.58-5.51-.93-2.34-.38-4.35-.71-4.73-.8-2.47-.58-4.89-1.15-7.28-1.64-9.7-1.81-19.62-2.94-29.49-3.34l-.42-.03c-1.3-.08-2.64-.16-3.91-.16-.53-.02-2.48-.24-4.96-.52l-.62-.07c-5.54-.66-10.68,2.73-12.23,8.09-.85,3.33-1.12,6.76-.8,10.2,2.43,33.72,.06,50.83-1.21,60.02-1.31,9.48-1.36,9.86,5.93,11.53h-.03Z" fill="#002346"></path>
      </g>
      <g>
        <path d="M560.51,223.8l-.17-1.4c-.32-2.64-2.53-4.64-5.18-4.7l-.86-.02-6.15,.44-14.19,8.08h0c-.4,.23-.78,.5-1.11,.84-5.98,6.6-12.05,13.18-18.11,19.46-3.98,3.87-7.83,8.27-12.27,11.54-6.77-12.17-11.94-25.18-15.33-38.71l-.02-.18c-2.64-12.42-20.58-9.09-18.64,3.43,3.82,17.69,11.31,34.39,22,49,3,5.01,9.35,6.88,14.59,4.3,4.43-2.35,8.36-5.54,11.56-9.4,8.46-9.76,15.95-20.31,22.39-31.49,7.14,1.86,14.05-3.44,14.12-3.49l3.15-1.81h0c2.72-.57,4.54-3.12,4.21-5.88h0Z" fill="#f2b3c1"></path>
        <path d="M500.16,277.51c-4.02,0-7.94-2.06-10.11-5.68-10.77-14.73-18.2-31.27-22.06-49.15-1.06-6.82,3.41-10.82,8.01-11.67,4.58-.84,10.18,1.31,11.61,8.03l.03,.23c3.31,13.18,8.36,25.99,15,38.02,2.98-2.27,5.74-5.08,8.41-7.8,1.12-1.14,2.23-2.27,3.35-3.36,5.32-5.52,11.08-11.7,18.09-19.44,.27-.28,.56-.51,.91-.74h0l.32-.2,14.4-8.14,6.15-.44,.9,.02c2.88,.07,5.32,2.28,5.67,5.14l.17,1.4c.37,3.01-1.58,5.75-4.52,6.41l-3.09,1.77c-.23,.18-6.95,5.27-14.13,3.64-6.44,11.12-13.92,21.63-22.26,31.25-3.25,3.92-7.19,7.12-11.7,9.51-1.64,.81-3.4,1.19-5.14,1.19h0Zm-22.26-65.66c-.58,0-1.16,.05-1.72,.16-4.14,.76-8.16,4.37-7.21,10.5,3.82,17.71,11.2,34.13,21.91,48.78,2.87,4.79,9,6.59,13.97,4.15,4.38-2.32,8.22-5.44,11.4-9.27,8.38-9.67,15.9-20.24,22.35-31.42l.19-.33,.37,.1c6.85,1.79,13.62-3.35,13.69-3.41l3.35-1.91c2.48-.52,4.12-2.81,3.82-5.33h0l-.17-1.4c-.29-2.37-2.31-4.21-4.7-4.26l-.86-.02-5.99,.43-13.77,7.84h0l-.33,.2c-.42,.23-.73,.47-1,.74-7.01,7.73-12.77,13.92-18.11,19.46-1.13,1.1-2.23,2.22-3.34,3.35-2.83,2.88-5.76,5.87-8.98,8.24l-.46,.34-.28-.5c-6.81-12.25-11.99-25.31-15.38-38.83l-.03-.25c-1.11-5.2-5.02-7.36-8.72-7.36h0Z" fill="#002346"></path>
      </g>
      <g>
        <path d="M479.47,208.67c-10.32-1.23-16.63,10.78-13.38,38.37h32.26s-1.91-36.37-18.88-38.37Z" fill="#fffff"></path>
        <path d="M498.88,247.54h-33.23l-.05-.44c-2.12-18.03-.33-30.47,5.2-35.99,2.36-2.36,5.3-3.34,8.74-2.93h0c17.19,2.03,19.24,37.34,19.32,38.84l.03,.53h-.01Zm-32.34-1.01h31.28c-.32-4.46-3.14-35.57-18.4-37.37h0c-3.12-.37-5.78,.52-7.91,2.65-5.18,5.17-6.94,17.5-4.96,34.73h-.01Z" fill="#002346"></path>
      </g>
      <g>
        <path d="M505.57,129.94s7.42-5.35,20-1.25c12.58,4.1,25.56,17.62,19.82,37-2.22,7.48-3.47,13.91-4.17,18.99-.95,6.92-7.55,11.59-14.39,10.16-13.48-2.82-32.98-7.64-38.82-12.99-9.2-8.43-7.76-56.89,17.55-51.91h.01Z" fill="#002346"></path>
        <path d="M529.34,195.6c-.86,0-1.73-.09-2.6-.27-14.62-3.05-33.27-7.81-39.06-13.11-6.27-5.75-7.71-28.7-.73-42.5,4.16-8.23,10.56-11.79,18.51-10.31,1.25-.82,8.52-5.02,20.26-1.2,11.47,3.74,26.3,16.84,20.15,37.62-1.91,6.46-3.31,12.83-4.15,18.92-.48,3.49-2.33,6.53-5.21,8.56-2.14,1.51-4.62,2.29-7.17,2.29h0Zm-27.27-65.52c-7.44,0-11.8,5.29-14.22,10.08-6.68,13.21-5.39,35.9,.51,41.31,4.39,4.02,18.09,8.59,38.58,12.87,3.16,.66,6.36,0,9-1.86,2.65-1.87,4.35-4.66,4.79-7.88,.85-6.14,2.25-12.56,4.18-19.06,5.95-20.09-8.4-32.77-19.5-36.38-12.16-3.96-19.48,1.13-19.55,1.18l-.18,.13-.21-.04c-1.2-.24-2.34-.35-3.41-.35h0Z" fill="#002346"></path>
      </g>
      <g>
        <path d="M496.68,176.4c1.5,9.73,2.7,27.6-4.21,33.27,7.19,4.16,14.57,7.98,22.11,11.44,3.65,1.68,8.05-.53,8.58-4.52,.33-2.51-1.09-3.61-1.09-3.61-10.51-3.76-9.94-11.68-7.78-18.91l-17.61-17.67Z" fill="#f2b3c1"></path>
        <path d="M517.17,222.17c-.96,0-1.91-.2-2.8-.61-7.53-3.46-14.98-7.32-22.15-11.46l-.62-.36,.56-.46c5.95-4.88,5.98-20.15,4.03-32.81l-.23-1.51,18.9,18.97-.09,.29c-2.09,6.98-2.83,14.61,7.47,18.3l.14,.08c.07,.05,1.64,1.31,1.27,4.07-.26,1.99-1.44,3.69-3.22,4.68-1.01,.56-2.13,.84-3.26,.84v-.02Zm-23.85-12.59c6.96,4,14.18,7.73,21.47,11.08,1.64,.75,3.57,.68,5.15-.19,1.51-.83,2.5-2.27,2.72-3.94,.25-1.93-.62-2.89-.85-3.11-10.9-3.95-10.11-12.28-8.08-19.21l-16.33-16.39c1.02,7.41,2.66,25.28-4.07,31.76h-.01Z" fill="#002346"></path>
      </g>
      <g>
        <rect x="486.99" y="143.22" width="61.98" height="44.53" rx="22.26" ry="22.26" transform="translate(256.45 642.24) rotate(-78.97)" fill="#f2b3c1"></rect>
        <path d="M516.33,196.79c-1.44,0-2.9-.14-4.36-.42h0c-12.32-2.4-20.39-14.38-17.99-26.7l3.34-17.13c1.16-5.97,4.58-11.13,9.62-14.52,5.04-3.4,11.11-4.63,17.07-3.47,12.32,2.4,20.39,14.38,17.99,26.7l-3.34,17.13c-2.12,10.86-11.67,18.41-22.33,18.41h0Zm-4.17-1.4c11.78,2.29,23.23-5.42,25.52-17.2l3.34-17.13c2.29-11.78-5.42-23.23-17.2-25.52-5.71-1.11-11.5,.07-16.32,3.31-4.82,3.25-8.09,8.18-9.2,13.89l-3.34,17.13c-2.29,11.78,5.42,23.23,17.2,25.52h0Z" fill="#002346"></path>
      </g>
      <g>
        <path d="M502.36,162.81s11.37-7,12.75-24.19c0,0,19-.6,25.63,16.2,0,0-2.38-24.16-29.44-25.17s-19.61,28.74-17.52,31.83,8.58,1.33,8.58,1.33Z" fill="#002346"></path>
        <path d="M498.5,163.81c-1.92,0-4.03-.43-5.13-2.05-1.42-2.11-5-15.47-.07-24.34,3.23-5.81,9.29-8.6,18.03-8.27,27.18,1.01,29.89,25.37,29.92,25.62l.35,3.56-1.31-3.33c-5.86-14.86-21.84-15.83-24.71-15.88-1.55,16.91-12.83,24.04-12.95,24.11l-.13,.06c-.14,.04-1.96,.52-3.99,.52h0Zm11.47-33.69c-7.62,0-12.94,2.61-15.81,7.78-4.73,8.51-1.33,21.28,.03,23.29,1.75,2.59,7.27,1.32,7.96,1.15,.88-.58,11.16-7.69,12.45-23.77l.04-.45h.45c.17-.02,16.59-.37,24.37,12.91-1.89-6.77-8.16-20.14-28.18-20.89-.44-.02-.88-.02-1.31-.02h0Z" fill="#002346"></path>
      </g>
      <g>
        <circle cx="101.73" cy="120.89" r="65.49" fill="#ffffffff"></circle>
        <path d="M101.73,186.85c-16.9,0-33.8-6.43-46.66-19.3-25.73-25.73-25.73-67.59,0-93.32h0c25.73-25.73,67.59-25.73,93.32,0,25.73,25.73,25.73,67.59,0,93.32-12.86,12.86-29.76,19.3-46.66,19.3ZM55.42,74.58l.35,.35c-25.34,25.34-25.34,66.57,0,91.91,25.34,25.34,66.57,25.34,91.91,0s25.34-66.57,0-91.91c-25.34-25.34-66.57-25.34-91.91,0,0,0-.35-.35-.35-.35Z" fill="#002346"></path>
      </g>
      <g>
        <circle cx="101.71" cy="120.86" r="59.92" fill="#fff"></circle>
        <path d="M101.71,181.28c-33.32,0-60.42-27.1-60.42-60.42s27.1-60.42,60.42-60.42,60.42,27.1,60.42,60.42-27.1,60.42-60.42,60.42Zm0-119.84c-32.76,0-59.42,26.66-59.42,59.42s26.66,59.42,59.42,59.42,59.42-26.66,59.42-59.42-26.66-59.42-59.42-59.42Z" fill="#002346"></path>
      </g>
      <g>
        <path d="M107.3,120.89c0-3.08-2.49-5.58-5.57-5.59-3.08,0-5.58,2.49-5.59,5.57,0,3.08,2.49,5.58,5.57,5.59h0c3.08,0,5.57-2.49,5.58-5.57h.01Z" fill="#002346"></path>
        <path d="M101.72,126.96c-1.63,0-3.16-.64-4.31-1.79s-1.78-2.68-1.77-4.3,.64-3.15,1.79-4.3c1.15-1.14,2.67-1.77,4.29-1.77h.01c1.62,0,3.15,.64,4.3,1.79s1.78,2.68,1.77,4.3c0,3.35-2.73,6.07-6.08,6.07Zm0-11.16c-1.35,0-2.63,.53-3.58,1.48s-1.49,2.23-1.49,3.59,.52,2.63,1.48,3.59c.96,.96,2.23,1.49,3.59,1.49,2.81,0,5.08-2.27,5.09-5.07h0c0-1.36-.52-2.63-1.48-3.59-.96-.96-2.23-1.49-3.59-1.49h-.02Z" fill="#0d2445"></path>
      </g>
      <rect x="110.15" y="123.52" width="1" height="14.05" transform="translate(-57.13 96.82) rotate(-38.35)" fill="#002346"></rect>
      <rect x="93.09" y="98.59" width="43.18" height="1" transform="translate(-32.28 136.14) rotate(-54.98)" fill="#002346"></rect>
      <path d="M515.31,391.4c-.28,0-.5-.22-.5-.5v-25.1c0-.28,.22-.5,.5-.5s.5,.22,.5,.5v25.1c0,.28-.22,.5-.5,.5Z" fill="#002346"></path>
      <g>
        <ellipse cx="527.79" cy="147.84" rx="10.11" ry="19.56" transform="translate(107.19 499.29) rotate(-55.53)" fill="#002346"></ellipse>
        <path d="M537.23,162.14c-4.45,0-10.13-1.92-15.46-5.58-9.12-6.26-13.85-15.28-10.54-20.1,1.64-2.39,4.92-3.4,9.24-2.86,4.2,.53,8.93,2.47,13.3,5.47,9.12,6.26,13.85,15.28,10.54,20.1h0c-1.37,2-3.92,2.97-7.09,2.97h.01Zm-18.94-27.69c-2.9,0-5.08,.89-6.23,2.57-3,4.37,1.61,12.76,10.28,18.71,8.67,5.95,18.16,7.23,21.16,2.87,3-4.37-1.61-12.76-10.28-18.71-4.24-2.91-8.81-4.8-12.86-5.3-.72-.09-1.41-.13-2.06-.13h-.01Z" fill="#002346"></path>
      </g>
      <g>
        <ellipse cx="497.52" cy="163.35" rx="5" ry="6" fill="#f2b3c1"></ellipse>
        <path d="M497.52,169.85c-3.03,0-5.5-2.92-5.5-6.5s2.47-6.5,5.5-6.5,5.5,2.92,5.5,6.5-2.47,6.5-5.5,6.5Zm0-12c-2.48,0-4.5,2.47-4.5,5.5s2.02,5.5,4.5,5.5,4.5-2.47,4.5-5.5-2.02-5.5-4.5-5.5Z" fill="#002346"></path>
      </g>
    </g>
    <g>
      <path d="M642.54,88.88h0c31.46,0,57,25.54,57,57h-114c0-31.46,25.54-57,57-57Z" fill="#fff"></path>
      <path d="M700.04,146.38h-115v-.5c0-31.71,25.79-57.5,57.5-57.5s57.5,25.79,57.5,57.5v.5Zm-114-1h113c-.27-30.92-25.51-56-56.5-56s-56.23,25.08-56.5,56Z" fill="#002346"></path>
    </g>
    <path d="M657.53,91.38c-.13,0-.27-.05-.36-.16l-14.63-15.53-14.63,15.53c-.19,.2-.51,.21-.71,.02s-.21-.51-.02-.71l14.99-15.92c.19-.2,.54-.2,.73,0l14.99,15.92c.19,.2,.18,.52-.02,.71-.1,.09-.22,.14-.34,.14h0Z" fill="#002346"></path>
    <path d="M642.54,75.45c-.28,0-.5-.22-.5-.5V10.36c0-.28,.22-.5,.5-.5s.5,.22,.5,.5V74.95c0,.28-.22,.5-.5,.5Z" fill="#002346"></path>
    <g>
      <circle cx="643.04" cy="145.38" r="16.5" fill="#fffff"></circle>
      <path d="M643.04,162.38c-9.37,0-17-7.63-17-17s7.63-17,17-17,17,7.63,17,17-7.63,17-17,17Zm0-33c-8.82,0-16,7.18-16,16s7.18,16,16,16,16-7.18,16-16-7.18-16-16-16Z" fill="#002346"></path>
    </g>
  </g>
  <g>
    <g>
      <rect x="735.71" y="625.82" width="15.44" height="27.83" fill="#e6e7e8"></rect>
      <path d="M735.37,625.47h16.13v28.53h-16.13v-28.53Zm15.44,.69h-14.74v27.14h14.74v-27.14Z" fill="#002346"></path>
    </g>
    <g>
      <rect x="803.93" y="625.82" width="15.44" height="27.83" fill="#e6e7e8"></rect>
      <path d="M803.58,625.47h16.13v28.53h-16.13v-28.53Zm15.44,.69h-14.74v27.14h14.74v-27.14Z" fill="#002346"></path>
    </g>
    <g>
      <path d="M701.78,458.97h123.21c2.57,0,4.66,2.08,4.66,4.66v157.55c0,2.57-2.08,4.66-4.66,4.66h-123.21v-166.86h0Z" fill="#e6e7e8"></path>
      <path d="M701.43,458.62h123.55c2.76,0,5,2.24,5,5v157.55c0,2.76-2.24,5-5,5h-123.55v-167.55Zm.69,.69v166.16h122.86c2.38,0,4.31-1.93,4.31-4.31v-157.55c0-2.38-1.93-4.31-4.31-4.31h-122.86Z" fill="#002346"></path>
    </g>
    <g>
      <rect x="678.36" y="458.97" width="124.55" height="166.86" rx="4.66" ry="4.66" fill="#fff"></rect>
      <path d="M678.01,621.17v-157.55c0-2.76,2.24-5,5-5h115.24c2.76,0,5,2.24,5,5v157.55c0,2.76-2.24,5-5,5h-115.24c-2.76,0-5-2.24-5-5Zm5-161.85c-2.38,0-4.31,1.93-4.31,4.31v157.55c0,2.38,1.93,4.31,4.31,4.31h115.24c2.38,0,4.31-1.93,4.31-4.31v-157.55c0-2.38-1.93-4.31-4.31-4.31h-115.24Z" fill="#002346"></path>
    </g>
    <g>
      <rect x="689.36" y="625.82" width="15.44" height="27.83" fill="#fff"></rect>
      <path d="M689.02,625.47h16.13v28.53h-16.13v-28.53Zm15.44,.69h-14.74v27.14h14.74v-27.14Z" fill="#002346"></path>
    </g>
    <g>
      <rect x="778.13" y="625.82" width="15.44" height="27.83" fill="#fff"></rect>
      <path d="M777.79,625.47h16.13v28.53h-16.13v-28.53Zm15.44,.69h-14.74v27.14h14.74v-27.14Z" fill="#002346"></path>
    </g>
    <g>
      <path d="M685.51,504.11v-32.17c0-2.76,2.24-5,5-5h97.8c2.76,0,5,2.24,5,5v32.17c0,2.76-2.24,5-5,5h-97.8c-2.76,0-5-2.24-5-5Zm5-36.48c-2.38,0-4.31,1.93-4.31,4.31v32.17c0,2.38,1.93,4.31,4.31,4.31h97.8c2.38,0,4.31-1.93,4.31-4.31v-32.17c0-2.38-1.93-4.31-4.31-4.31h-97.8Z" fill="#002346"></path>
      <path d="M734.9,488.03c0-2.49,2.02-4.51,4.51-4.51s4.51,2.02,4.51,4.51-2.02,4.51-4.51,4.51-4.51-2.02-4.51-4.51Zm.69,0c0,2.1,1.71,3.82,3.82,3.82s3.82-1.71,3.82-3.82-1.71-3.82-3.82-3.82-3.82,1.71-3.82,3.82Z" fill="#002346"></path>
    </g>
    <g>
      <path d="M686.73,610.36v-89.45c0-3.08,2.51-5.59,5.59-5.59h97.22c2.76,0,5,2.24,5,5v90.03c0,3.08-2.51,5.59-5.59,5.59h-96.63c-3.08,0-5.59-2.51-5.59-5.59h0Zm5.59-94.33c-2.7,0-4.89,2.2-4.89,4.89v89.45c0,2.7,2.2,4.89,4.89,4.89h96.63c2.7,0,4.89-2.2,4.89-4.89v-90.03c0-2.38-1.93-4.31-4.31-4.31h-97.21Z" fill="#002346"></path>
      <path d="M736.13,594.86c0-2.49,2.02-4.51,4.51-4.51s4.51,2.02,4.51,4.51-2.02,4.51-4.51,4.51-4.51-2.02-4.51-4.51Zm.69,0c0,2.1,1.71,3.82,3.82,3.82s3.82-1.71,3.82-3.82-1.71-3.82-3.82-3.82-3.82,1.71-3.82,3.82Z" fill="#002346"></path>
    </g>
    <g>
      <g>
        <path d="M753.91,411.85s1.13-25.81-1.71-38.57c-.48-2.15-1.49-4.15-2.96-5.79-5.78-6.5-23.71-26.31-38.95-39.09,0,0,14.27-2.97,27.75,5.15v8.72l2.98-6.94s16.65,9.91,15.06,37.07l-.79,26.16-1.39,13.29h.01Z" fill="#7cd295"></path>
        <path d="M753.56,411.84c.01-.26,1.1-25.91-1.7-38.48-.46-2.09-1.46-4.04-2.88-5.64-6.74-7.58-24.02-26.56-38.91-39.05l-.55-.46,.7-.15c.14-.03,14.56-2.9,28,5.2l.17,.1v7.23l2.47-5.75,.34,.2c.17,.1,16.81,10.33,15.23,37.37l-.79,26.19-1.39,13.29-.69-.05h0Zm-15.86-67.87v-10.21c-11.44-6.81-23.56-5.59-26.61-5.13,14.79,12.52,31.75,31.14,38.41,38.64,1.5,1.69,2.55,3.74,3.03,5.95,1.79,8.04,2,21.36,1.92,30.07l.49-4.72,.79-26.17c1.43-24.48-12.23-34.93-14.56-36.53l-3.48,8.11h.01Z" fill="#002346"></path>
      </g>
      <g>
        <path d="M725.66,433.36c0,12.52,8.97,23.24,21.29,25.46h0c14.08,2.51,27.52-6.87,30.03-20.94,.27-1.49,.4-3,.4-4.52,0-6.33-2.31-12.43-6.51-17.16l-28.02-.19-10.45-.08c-4.35,4.76-6.76,10.98-6.75,17.43h.01Z" fill="#fffff"></path>
        <path d="M746.89,459.16c-12.5-2.25-21.58-13.1-21.58-25.8-.01-6.55,2.42-12.83,6.84-17.67l.1-.11,38.78,.27,.1,.12c4.26,4.8,6.6,10.98,6.59,17.39,0,1.53-.14,3.07-.41,4.58-1.23,6.9-5.07,12.91-10.82,16.92-4.45,3.11-9.64,4.72-14.95,4.72-1.55,0-3.11-.14-4.66-.41h0Zm-14.33-42.9c-4.24,4.69-6.57,10.76-6.56,17.09h0c0,12.37,8.83,22.93,21,25.12,6.72,1.2,13.5-.29,19.09-4.2,5.6-3.9,9.34-9.75,10.54-16.47,.26-1.47,.39-2.97,.4-4.46,0-6.2-2.23-12.16-6.32-16.82l-38.16-.27h0Z" fill="#002346"></path>
      </g>
      <g>
        <path d="M756.99,416.11v-2.34c-.04-3.09,1.19-6.06,3.39-8.22l39.18-38.51s-18.85-2.38-27.82,5.13l-.19,10.25-3.11-8.05s-16.84,7.14-15.37,41.73l3.91,.03v-.02Z" fill="#7cd295"></path>
        <path d="M752.74,416.42v-.33c-1.47-34.43,15.4-41.99,15.57-42.06l.33-.14,2.6,6.74,.16-8.63,.12-.1c8.98-7.52,27.31-5.3,28.08-5.21l.71,.09-39.69,39.01c-2.12,2.09-3.32,4.99-3.29,7.97v2.69l-4.59-.03Zm19.34-44.1l-.22,11.86-3.61-9.35c-2.3,1.22-16.07,9.88-14.85,40.9l3.23,.02v-1.99c-.04-3.17,1.24-6.25,3.5-8.47l38.66-37.99c-3.51-.33-18.9-1.36-26.71,5.02h0Z" fill="#002346"></path>
      </g>
      <g>
        <path d="M747.76,416.04l-2.14-17.53c-.15-1.25-.7-2.42-1.55-3.34-5.61-6.01-27.81-29.53-40.7-40.2,0,0,14.87-1.39,28.14,5.35l.4,9.32,2.98-7.14s14.47,8.13,14.87,36.45v17.08h-1.98s-.02,.01-.02,.01Z" fill="#7cd295"></path>
        <path d="M745.27,398.55c-.14-1.18-.65-2.27-1.46-3.14-4.47-4.79-27.45-29.22-40.67-40.17l-.65-.53,.83-.08c.15-.01,15.12-1.32,28.33,5.38l.18,.09,.34,7.96,2.53-6.06,.34,.19c.15,.08,14.65,8.55,15.04,36.75v17.42l-2.64,.02-2.18-17.84h0Zm4.13,.41c-.35-25.37-12.21-34.49-14.36-35.94l-3.42,8.2-.45-10.67c-11.18-5.6-23.59-5.44-26.92-5.28,13.34,11.22,35.66,34.96,40.07,39.67,.91,.98,1.48,2.2,1.64,3.53l2.11,17.22h1.33v-16.74h0Z" fill="#002346"></path>
      </g>
    </g>
  </g>
</svg>
