<svg width="866" height="683" viewBox="0 0 866 683" fill="none" xmlns="http://www.w3.org/2000/svg">
    <path d="M564.532 235.02C564.342 235.7 564.742 236.41 565.422 236.6H565.622L579.952 238.55C580.782 238.66 581.552 238.13 581.762 237.32L588.842 209.52C589.072 208.74 588.622 207.93 587.842 207.7L573.512 205.7C572.662 205.74 571.922 206.31 571.682 207.13L564.532 235.02Z" fill="white"/>
    <path d="M580.161 239.06C580.071 239.06 579.981 239.06 579.881 239.04L565.601 237.1H565.381L565.281 237.08C564.821 236.95 564.441 236.65 564.211 236.24C563.981 235.83 563.921 235.35 564.041 234.89L571.191 207.01C571.501 205.97 572.421 205.25 573.481 205.2L587.901 207.2C589.011 207.52 589.611 208.61 589.311 209.65L582.231 237.43C581.991 238.39 581.121 239.05 580.151 239.05H580.161V239.06ZM565.691 236.11L580.021 238.06C580.591 238.13 581.131 237.77 581.281 237.2L588.361 209.4C588.511 208.87 588.221 208.33 587.701 208.18L573.441 206.2C572.891 206.23 572.341 206.66 572.161 207.28L565.011 235.16C564.951 235.36 564.981 235.57 565.081 235.75C565.181 235.93 565.351 236.06 565.551 236.12H565.691V236.11Z" fill="#002346"/>
    <path d="M573.232 207.23L566.142 235.31C565.912 235.86 566.162 236.5 566.712 236.74C566.832 236.79 566.952 236.82 567.082 236.83L579.232 238.48C580.042 238.6 581.582 238.35 581.802 237.57L588.962 209.38C589.182 208.58 587.872 207.76 586.962 207.64L574.822 205.97C574.042 205.9 573.342 206.46 573.232 207.23Z" fill="#E6E7E8"/>
    <path d="M579.651 239C579.471 239 579.301 239 579.161 238.97L567.021 237.32C566.871 237.32 566.691 237.27 566.521 237.2C565.721 236.85 565.351 235.91 565.681 235.12L572.741 207.13C572.901 206.11 573.831 205.39 574.861 205.47L587.031 207.14C587.751 207.23 588.771 207.72 589.241 208.42C589.471 208.77 589.551 209.15 589.451 209.51L582.291 237.69C582.011 238.68 580.621 239 579.661 239H579.651ZM574.681 206.46C574.221 206.46 573.801 206.81 573.731 207.3V207.35L566.631 235.43C566.481 235.8 566.631 236.15 566.921 236.28C566.981 236.31 567.051 236.32 567.131 236.33L579.311 237.98C580.101 238.1 581.231 237.79 581.331 237.43L588.491 209.25C588.511 209.17 588.491 209.08 588.411 208.97C588.161 208.59 587.461 208.2 586.901 208.13L574.761 206.46H574.681Z" fill="#002346"/>
    <path d="M588.301 232.68L587.691 225.39C587.551 224.13 586.671 223.08 585.461 222.72L581.041 221.4C578.961 220.78 576.761 221.97 576.151 224.06L574.321 230.32C573.991 231.45 574.301 232.67 575.131 233.51L577.061 235.44L577.011 235.49C577.011 235.49 576.261 238.97 577.451 241.78C574.611 246.85 571.571 251.81 568.351 256.65C566.621 259.08 564.971 261.51 563.101 263.43C555.951 251.53 549.471 235.87 543.671 222.66L543.541 222.6C538.011 210.8 520.891 218.86 526.331 230.54C531.861 241.47 537.581 252.08 543.971 262.54C547.491 267.79 550.591 273.91 556.121 278.11C566.911 284.87 575.231 270.68 579.121 263.04C582.881 255.72 582.571 257.44 585.291 249.67C585.341 249.52 587.271 244.41 588.331 241.58C588.781 240.38 588.941 239.11 588.811 237.83L588.291 232.66V232.68H588.301Z" fill="#F2B3C1"/>
    <path d="M561.812 280.39C559.822 280.39 557.832 279.77 555.862 278.54C551.382 275.14 548.522 270.6 545.742 266.21C545.012 265.06 544.292 263.92 543.562 262.82C537.782 253.36 532.172 243.18 525.892 230.77C522.932 224.42 526.262 219.35 530.612 217.32C534.922 215.3 540.902 215.99 543.922 222.23L544.062 222.29L544.142 222.46C544.992 224.38 545.852 226.36 546.722 228.37C551.662 239.71 557.242 252.54 563.212 262.61C564.672 261.02 566.002 259.14 567.402 257.16L567.962 256.37C571.112 251.64 574.132 246.72 576.912 241.75C575.942 239.23 576.362 236.34 576.502 235.58L574.792 233.87C573.832 232.91 573.472 231.49 573.852 230.19L575.682 223.93C576.012 222.79 576.772 221.85 577.812 221.28C578.852 220.71 580.052 220.59 581.192 220.93L585.612 222.25C587.022 222.67 588.032 223.88 588.192 225.34L588.802 232.64L589.322 237.8C589.462 239.16 589.292 240.5 588.812 241.77C588.192 243.42 587.282 245.85 586.612 247.61C586.142 248.85 585.802 249.76 585.772 249.84C583.832 255.38 583.402 256.16 581.992 258.73C581.402 259.81 580.662 261.15 579.572 263.28C574.562 273.12 569.612 278.6 564.452 280.03C563.572 280.27 562.692 280.39 561.812 280.39ZM535.062 217.32C533.652 217.32 532.272 217.65 531.032 218.23C527.122 220.06 524.132 224.62 526.792 230.34C533.052 242.72 538.652 252.87 544.402 262.29C545.132 263.38 545.852 264.52 546.592 265.68C549.322 269.99 552.132 274.46 556.432 277.72C558.982 279.32 561.602 279.77 564.182 279.06C569.062 277.71 573.802 272.4 578.682 262.82C579.782 260.68 580.522 259.33 581.112 258.25C582.532 255.67 582.912 254.98 584.822 249.52C584.842 249.46 585.192 248.53 585.672 247.26C586.342 245.5 587.252 243.07 587.872 241.42C588.292 240.29 588.442 239.1 588.322 237.9L587.802 232.72L587.192 225.43C587.072 224.38 586.342 223.5 585.322 223.2L580.902 221.88C580.022 221.62 579.092 221.72 578.292 222.15C577.482 222.59 576.902 223.32 576.642 224.2L574.812 230.46C574.532 231.42 574.792 232.45 575.502 233.16L577.752 235.42L577.492 235.72C577.382 236.34 576.932 239.25 577.922 241.59L578.022 241.82L577.902 242.03C575.072 247.09 572.002 252.1 568.782 256.94L568.212 257.74C566.642 259.96 565.162 262.05 563.472 263.79L563.022 264.26L562.692 263.7C556.572 253.5 550.852 240.37 545.812 228.78C544.962 226.83 544.132 224.92 543.312 223.05L543.192 222.99L543.112 222.82C541.262 218.88 538.132 217.32 535.082 217.32H535.062Z" fill="#002346"/>
    <path d="M448.641 93.77H199.551C185.511 93.9 174.231 105.39 174.351 119.43V646.95C174.211 661.01 185.491 672.53 199.551 672.67H448.641C462.701 672.54 473.991 661.05 473.871 646.99V119.45C473.991 105.39 462.701 93.9 448.641 93.77ZM458.111 631.1C458.111 644.6 448.001 655.51 435.531 655.51H212.701C200.201 655.51 190.091 644.6 190.091 631.1V138.89C190.091 111.38 200.201 110.04 212.701 110.04H257.341C259.921 110.04 262.051 113.04 262.051 116.65V118.19C262.051 126.75 266.671 126.78 272.481 126.78H375.711C381.511 126.78 386.181 126.78 386.181 118.19V116.67C386.181 113.02 388.271 110.06 390.901 110.06H435.541C448.011 110.06 458.131 113.73 458.131 138.91L458.111 631.1Z" fill="white"/>
    <path d="M199.551 673.17C192.611 673.1 186.121 670.33 181.261 665.38C176.411 660.43 173.771 653.88 173.851 646.95V119.43C173.731 105.14 185.251 93.4 199.541 93.27H448.641C462.951 93.4 474.491 105.15 474.371 119.45V646.99C474.491 661.29 462.951 673.04 448.641 673.17H199.551ZM199.551 94.27C185.811 94.4 174.731 105.68 174.851 119.43V646.95C174.781 653.62 177.311 659.92 181.981 664.68C186.651 669.44 192.891 672.1 199.551 672.17H448.641C462.391 672.04 473.481 660.75 473.371 646.99V119.45C473.491 105.69 462.391 94.39 448.641 94.27H199.551ZM435.531 656.01H212.701C199.961 656.01 189.591 644.84 189.591 631.1V138.89C189.591 111.65 199.171 109.54 212.701 109.54H257.341C260.211 109.54 262.551 112.73 262.551 116.65V118.19C262.551 126.28 266.721 126.28 272.481 126.28H375.711C381.501 126.28 385.681 126.28 385.681 118.19V116.67C385.681 112.68 387.971 109.56 390.901 109.56H435.541C449.401 109.56 458.631 114.55 458.631 138.91L458.611 631.1C458.611 644.84 448.261 656.01 435.531 656.01ZM212.701 110.54C199.751 110.54 190.591 112.57 190.591 138.89V631.1C190.591 644.28 200.511 655.01 212.701 655.01H435.531C447.701 655.01 457.611 644.28 457.611 631.1L457.631 138.91C457.631 112.75 446.231 110.56 435.541 110.56H390.901C388.571 110.56 386.681 113.3 386.681 116.67V118.19C386.681 127.28 381.601 127.28 375.711 127.28H272.481C266.861 127.28 261.551 127.28 261.551 118.19V116.65C261.551 113.34 259.621 110.54 257.341 110.54H212.701Z" fill="#002346"/>
    <path d="M458.112 138.89V631.1C458.112 644.6 448.002 655.51 435.532 655.51H212.702C200.202 655.51 190.092 644.6 190.092 631.1V138.89C190.092 111.38 200.202 110.04 212.702 110.04H257.342C259.922 110.04 262.052 113.04 262.052 116.65V118.19C262.052 126.75 266.672 126.78 272.482 126.78H375.712C381.512 126.78 386.182 126.78 386.182 118.19V116.67C386.182 113.02 388.272 110.06 390.902 110.06H435.542C448.022 110.04 458.112 113.67 458.112 138.89Z" fill="white"/>
    <path d="M458.112 138.87V631.1C458.112 644.6 448.002 655.51 435.532 655.51H212.702C200.202 655.51 190.092 644.6 190.092 631.1V138.87C190.092 111.38 200.202 110.04 212.702 110.04H257.342C259.922 110.04 262.052 113.04 262.052 116.65V118.19C262.052 126.76 266.672 126.79 272.482 126.79H375.712C381.512 126.79 386.182 126.79 386.182 118.19V116.67C386.182 113.02 388.272 110.06 390.902 110.06H435.542C448.022 110.04 458.112 113.67 458.112 138.87Z" fill="white"/>
    <path d="M435.532 656.01H212.702C199.962 656.01 189.592 644.84 189.592 631.1V138.87C189.592 111.64 199.172 109.54 212.702 109.54H257.342C260.212 109.54 262.552 112.73 262.552 116.65V118.19C262.552 126.29 266.722 126.29 272.482 126.29H375.712C381.502 126.29 385.682 126.29 385.682 118.19V116.67C385.682 112.68 387.972 109.56 390.902 109.56H435.542C441.072 109.56 447.352 110.15 451.892 114.68C456.412 119.2 458.612 127.11 458.612 138.87V631.1C458.612 644.84 448.262 656.01 435.532 656.01ZM212.702 110.54C199.752 110.54 190.592 112.57 190.592 138.87V631.1C190.592 644.28 200.512 655.01 212.702 655.01H435.532C447.702 655.01 457.612 644.28 457.612 631.1V138.87C457.612 127.39 455.512 119.71 451.182 115.39C446.902 111.12 440.862 110.53 435.542 110.56H390.902C388.572 110.56 386.682 113.3 386.682 116.67V118.19C386.682 127.29 381.602 127.29 375.712 127.29H272.482C266.862 127.29 261.552 127.29 261.552 118.19V116.65C261.552 113.34 259.622 110.54 257.342 110.54H212.702Z" fill="#002346"/>
    <path d="M458.111 138.89V181.39H190.111V138.89C190.111 111.38 200.221 110.04 212.721 110.04H257.361C259.941 110.04 262.071 113.04 262.071 116.65V118.19C262.071 126.75 266.691 126.78 272.501 126.78H375.711C381.511 126.78 386.181 126.78 386.181 118.19V116.67C386.181 113.02 388.271 110.06 390.901 110.06H435.541C448.021 110.04 458.111 113.67 458.111 138.89Z" fill="black"/>
    <path d="M458.611 181.89H189.611V138.89C189.611 111.65 199.191 109.54 212.721 109.54H257.361C260.231 109.54 262.571 112.73 262.571 116.65V118.19C262.571 126.28 266.741 126.28 272.501 126.28H375.711C381.501 126.28 385.681 126.28 385.681 118.19V116.67C385.681 112.68 387.971 109.56 390.901 109.56H435.541C441.101 109.58 447.351 110.15 451.881 114.68C456.411 119.2 458.611 127.12 458.611 138.89V181.89ZM190.611 180.89H457.611V138.89C457.611 127.4 455.511 119.71 451.181 115.39C446.901 111.12 440.881 110.56 435.551 110.56H390.911C388.581 110.56 386.691 113.3 386.691 116.67V118.19C386.691 127.28 381.611 127.28 375.721 127.28H272.511C266.891 127.28 261.581 127.28 261.581 118.19V116.65C261.581 113.34 259.651 110.54 257.371 110.54H212.731C199.781 110.54 190.621 112.57 190.621 138.89V180.89H190.611Z" fill="#002346"/>
    <path d="M338.181 116.12H310.021C309.061 116.12 308.291 115.34 308.281 114.38C308.301 113.43 309.071 112.68 310.021 112.67H338.171C339.131 112.67 339.901 113.43 339.911 114.39C339.911 115.36 339.151 116.13 338.191 116.14H338.171V116.12H338.181Z" fill="white"/>
    <path d="M337.391 116.64V116.62H310.021C308.791 116.62 307.791 115.61 307.781 114.38C307.811 113.14 308.791 112.17 310.021 112.17H338.171C339.421 112.15 340.401 113.16 340.411 114.39C340.411 115 340.181 115.56 339.771 115.98C339.351 116.4 338.791 116.64 338.201 116.64H337.391ZM338.181 113.17H310.021C309.341 113.17 308.801 113.71 308.781 114.39C308.781 115.06 309.341 115.61 310.021 115.62H338.391C338.641 115.58 338.871 115.46 339.051 115.27C339.281 115.04 339.411 114.73 339.401 114.4C339.401 113.71 338.851 113.17 338.171 113.17H338.181Z" fill="#002346"/>
    <path d="M439.951 202.59H208.281V260.82H439.951V202.59Z" fill="white"/>
    <path d="M440.451 261.32H207.781V202.09H440.451V261.32ZM208.781 260.32H439.451V203.09H208.781V260.32Z" fill="#002346"/>
    <path d="M242.111 252.06C230.861 252.03 221.771 242.88 221.801 231.63C221.831 220.38 230.981 211.29 242.231 211.32C253.451 211.35 262.531 220.45 262.541 231.67C262.541 242.92 253.411 252.04 242.161 252.03H242.111V252.06ZM242.111 214.18C232.431 214.18 224.581 222.02 224.571 231.7C224.571 241.38 232.411 249.23 242.091 249.24C251.771 249.24 259.621 241.41 259.631 231.73C259.631 222.05 251.791 214.2 242.111 214.18Z" fill="white"/>
    <path d="M242.111 252.56C230.601 252.53 221.271 243.14 221.301 231.63C221.321 226.06 223.501 220.82 227.461 216.89C231.401 212.97 236.621 210.82 242.171 210.82H242.231C253.691 210.85 263.031 220.21 263.041 231.67C263.041 237.25 260.861 242.49 256.921 246.43C253.081 250.26 248.021 252.42 242.611 252.53L242.111 252.56ZM242.171 211.82C236.891 211.82 231.911 213.87 228.161 217.6C224.401 221.34 222.311 226.33 222.301 231.63C222.271 242.42 230.891 251.25 241.611 251.55V251.53H242.121C247.471 251.53 252.461 249.47 256.211 245.72C259.961 241.97 262.031 236.98 262.041 231.67C262.031 220.76 253.141 211.85 242.231 211.82H242.171ZM242.101 249.74C237.281 249.74 232.761 247.86 229.351 244.45C225.951 241.04 224.071 236.51 224.081 231.7C224.081 221.76 232.171 213.68 242.111 213.68C252.051 213.7 260.131 221.79 260.131 231.73C260.121 241.66 252.031 249.74 242.101 249.74ZM242.101 214.68C232.711 214.68 225.081 222.31 225.071 231.7C225.071 236.25 226.841 240.53 230.051 243.74C233.261 246.96 237.541 248.73 242.091 248.73C251.471 248.73 259.111 241.1 259.121 231.72C259.121 222.34 251.481 214.69 242.101 214.67V214.68Z" fill="#002346"/>
    <path d="M251.992 224.04L249.772 221.82L242.122 229.48L234.462 221.82L232.242 224.04L239.902 231.7L232.252 239.34L234.482 241.56L242.122 233.92L249.762 241.55L251.982 239.33L244.342 231.7L251.992 224.04Z" fill="white"/>
    <path d="M234.471 242.27L231.541 239.34L239.181 231.7L231.521 224.04L234.451 221.11L242.111 228.77L249.761 221.12L252.691 224.05L245.041 231.7L252.681 239.34L249.751 242.27L242.111 234.63L234.471 242.27ZM232.961 239.34L234.471 240.85L242.111 233.21L249.751 240.85L251.261 239.34L243.621 231.7L251.271 224.05L249.761 222.54L242.111 230.19L234.451 222.53L232.941 224.04L240.601 231.7L232.961 239.34Z" fill="#002346"/>
    <path d="M426.461 216.18H277.441V219H426.461V216.18Z" fill="white"/>
    <path d="M426.961 219.5H276.941V215.68H426.961V219.5ZM277.941 218.5H425.961V216.68H277.941V218.5Z" fill="#002346"/>
    <path d="M426.461 227.43H277.441V230.25H426.461V227.43Z" fill="white"/>
    <path d="M426.961 230.75H276.941V226.93H426.961V230.75ZM277.941 229.75H425.961V227.93H277.941V229.75Z" fill="#002346"/>
    <path d="M399.091 233.08H277.441V235.9H399.091V233.08Z" fill="white"/>
    <path d="M399.591 236.4H276.941V232.58H399.591V236.4ZM277.941 235.4H398.591V233.58H277.941V235.4Z" fill="#002346"/>
    <path d="M358.181 238.75H277.441V241.57H358.181V238.75Z" fill="white"/>
    <path d="M358.681 242.07H276.941V238.25H358.681V242.07ZM277.941 241.07H357.681V239.25H277.941V241.07Z" fill="#002346"/>
    <path d="M399.091 244.41H277.441V247.23H399.091V244.41Z" fill="white"/>
    <path d="M399.591 247.73H276.941V243.91H399.591V247.73ZM277.941 246.73H398.591V244.91H277.941V246.73Z" fill="#002346"/>
    <path d="M439.951 351.95H208.281V410.18H439.951V351.95Z" fill="white"/>
    <path d="M440.451 410.68H207.781V351.45H440.451V410.68ZM208.781 409.68H439.451V352.45H208.781V409.68Z" fill="#002346"/>
    <path d="M242.111 401.4C230.841 401.39 221.711 392.24 221.731 380.97C221.731 369.7 230.891 360.57 242.161 360.58C253.431 360.59 262.561 369.74 262.541 381.01C262.531 392.26 253.411 401.38 242.161 401.39H242.111V401.4ZM242.111 363.53C232.421 363.52 224.561 371.36 224.551 381.05C224.541 390.74 232.381 398.6 242.071 398.61C251.761 398.62 259.621 390.78 259.631 381.09C259.631 371.4 251.791 363.55 242.111 363.53Z" fill="white"/>
    <path d="M242.161 401.9H242.111C236.521 401.9 231.281 399.71 227.331 395.76C223.391 391.81 221.221 386.55 221.221 380.97C221.221 375.39 223.411 370.14 227.361 366.19C231.311 362.25 236.551 360.08 242.131 360.08H242.161C253.691 360.09 263.061 369.49 263.041 381.02C263.031 392.52 253.661 401.89 242.161 401.9ZM242.111 400.9H242.161C253.111 400.89 262.031 391.97 262.051 381.01C262.061 370.03 253.141 361.09 242.161 361.08H242.141C236.831 361.08 231.841 363.14 228.081 366.89C224.311 370.65 222.241 375.64 222.231 380.96C222.231 391.94 231.141 400.88 242.121 400.89L242.111 400.9ZM242.091 399.11H242.071C232.121 399.1 224.041 391 224.051 381.05C224.051 371.11 232.151 363.03 242.091 363.03H242.111C252.051 363.05 260.131 371.14 260.131 381.08C260.131 385.91 258.241 390.44 254.831 393.84C251.421 397.24 246.901 399.11 242.091 399.11ZM242.091 364.03C232.701 364.03 225.061 371.66 225.051 381.05C225.051 390.45 232.671 398.1 242.071 398.11H242.091C251.481 398.11 259.121 390.48 259.131 381.09C259.131 371.7 251.491 364.05 242.111 364.03H242.091Z" fill="#002346"/>
    <path d="M251.982 388.69L244.342 381.04L251.982 373.4L249.762 371.18L242.122 378.82L234.462 371.17L232.242 373.39L239.902 381.04L232.242 388.7L234.462 390.92L242.122 383.26L249.762 390.91L251.982 388.69Z" fill="white"/>
    <path d="M234.461 391.62L231.531 388.69L239.181 381.04L231.531 373.39L234.461 370.46L242.111 378.11L249.751 370.47L252.681 373.4L245.041 381.04L252.681 388.68L249.751 391.61L242.111 383.97L234.461 391.62ZM232.951 388.69L234.461 390.2L242.111 382.55L249.751 390.19L251.261 388.68L243.621 381.04L251.261 373.4L249.751 371.89L242.111 379.53L234.461 371.88L232.951 373.39L240.601 381.04L232.951 388.69Z" fill="#002346"/>
    <path d="M426.461 365.52H277.441V368.34H426.461V365.52Z" fill="white"/>
    <path d="M426.961 368.84H276.941V365.02H426.961V368.84ZM277.941 367.84H425.961V366.02H277.941V367.84Z" fill="#002346"/>
    <path d="M426.461 376.78H277.441V379.6H426.461V376.78Z" fill="white"/>
    <path d="M426.961 380.1H276.941V376.28H426.961V380.1ZM277.941 379.1H425.961V377.28H277.941V379.1Z" fill="#002346"/>
    <path d="M399.091 382.44H277.441V385.26H399.091V382.44Z" fill="white"/>
    <path d="M399.591 385.76H276.941V381.94H399.591V385.76ZM277.941 384.76H398.591V382.94H277.941V384.76Z" fill="#002346"/>
    <path d="M358.181 388.1H277.441V390.92H358.181V388.1Z" fill="white"/>
    <path d="M358.681 391.42H276.941V387.6H358.681V391.42ZM277.941 390.42H357.681V388.6H277.941V390.42Z" fill="#002346"/>
    <path d="M399.091 393.77H277.441V396.59H399.091V393.77Z" fill="white"/>
    <path d="M399.591 397.09H276.941V393.27H399.591V397.09ZM277.941 396.09H398.591V394.27H277.941V396.09Z" fill="#002346"/>
    <path d="M439.951 427.59H208.281V485.82H439.951V427.59Z" fill="white"/>
    <path d="M440.451 486.32H207.781V427.09H440.451V486.32ZM208.781 485.32H439.451V428.09H208.781V485.32Z" fill="#002346"/>
    <path d="M242.111 477.06C230.851 477.03 221.751 467.88 221.791 456.63C221.821 445.37 230.971 436.27 242.221 436.31C253.481 436.34 262.581 445.49 262.541 456.74C262.511 467.95 253.431 477.03 242.221 477.06H242.111ZM242.111 439.18C232.431 439.18 224.581 447.02 224.571 456.7C224.561 466.38 232.411 474.23 242.091 474.24C251.771 474.24 259.621 466.41 259.631 456.73V456.67C259.591 447.02 251.761 439.22 242.111 439.2V439.18Z" fill="white"/>
    <path d="M242.221 477.56H242.111C236.531 477.54 231.301 475.36 227.361 471.4C223.421 467.44 221.271 462.2 221.281 456.62C221.291 451.04 223.481 445.81 227.441 441.87C231.401 437.93 236.641 435.81 242.221 435.79C247.801 435.81 253.031 437.99 256.971 441.95C260.901 445.9 263.061 451.15 263.051 456.73C263.021 468.18 253.681 477.52 242.231 477.55L242.221 477.56ZM242.111 476.57H242.221C253.121 476.54 262.021 467.65 262.051 456.74C262.061 451.43 260.011 446.43 256.271 442.67C252.531 438.91 247.541 436.82 242.231 436.81H242.181C236.891 436.81 231.911 438.86 228.161 442.59C224.401 446.33 222.311 451.32 222.301 456.63C222.291 461.94 224.341 466.94 228.081 470.7C231.821 474.46 236.811 476.55 242.121 476.56L242.111 476.57ZM242.111 474.76C237.291 474.76 232.771 472.88 229.361 469.47C225.961 466.06 224.081 461.53 224.091 456.72C224.091 446.78 232.181 438.7 242.121 438.7L242.621 438.73C252.281 439.01 260.101 446.97 260.141 456.69C260.131 466.69 252.041 474.76 242.111 474.76ZM241.621 439.71C232.461 439.97 225.091 447.5 225.081 456.72C225.081 461.27 226.851 465.55 230.061 468.76C233.271 471.98 237.551 473.75 242.101 473.75C251.481 473.75 259.121 466.12 259.131 456.74C259.091 447.34 251.451 439.73 242.111 439.71H241.621Z" fill="#002346"/>
    <path d="M251.982 464.34L244.332 456.68L251.962 449.05L249.742 446.83L242.112 454.46L234.472 446.82L232.252 449.04L239.892 456.68L232.232 464.34L234.452 466.56L242.112 458.91L249.762 466.56L251.982 464.34Z" fill="white"/>
    <path d="M234.451 467.27L231.521 464.34L239.181 456.68L231.541 449.04L234.471 446.11L242.111 453.75L249.751 446.11L252.681 449.04L245.041 456.68L252.691 464.33L249.761 467.26L242.111 459.61L234.451 467.27ZM232.941 464.34L234.451 465.85L242.111 458.19L249.761 465.84L251.271 464.33L243.621 456.68L251.261 449.04L249.751 447.53L242.111 455.17L234.471 447.53L232.961 449.04L240.601 456.68L232.941 464.34Z" fill="#002346"/>
    <path d="M426.461 441.18H277.441V444H426.461V441.18Z" fill="white"/>
    <path d="M426.961 444.5H276.941V440.68H426.961V444.5ZM277.941 443.5H425.961V441.68H277.941V443.5Z" fill="#002346"/>
    <path d="M426.461 452.43H277.441V455.25H426.461V452.43Z" fill="white"/>
    <path d="M426.961 455.75H276.941V451.93H426.961V455.75ZM277.941 454.75H425.961V452.93H277.941V454.75Z" fill="#002346"/>
    <path d="M399.091 458.1H277.441V460.92H399.091V458.1Z" fill="white"/>
    <path d="M399.591 461.42H276.941V457.6H399.591V461.42ZM277.941 460.42H398.591V458.6H277.941V460.42Z" fill="#002346"/>
    <path d="M358.181 463.75H277.441V466.57H358.181V463.75Z" fill="white"/>
    <path d="M358.681 467.07H276.941V463.25H358.681V467.07ZM277.941 466.07H357.681V464.25H277.941V466.07Z" fill="#002346"/>
    <path d="M399.091 469.41H277.441V472.23H399.091V469.41Z" fill="white"/>
    <path d="M399.591 472.73H276.941V468.91H399.591V472.73ZM277.941 471.73H398.591V469.91H277.941V471.73Z" fill="#002346"/>
    <path d="M439.951 503.23H208.281V561.46H439.951V503.23Z" fill="white"/>
    <path d="M440.451 561.96H207.781V502.73H440.451V561.96ZM208.781 560.96H439.451V503.73H208.781V560.96Z" fill="#002346"/>
    <path d="M242.111 552.67C230.841 552.66 221.711 543.51 221.731 532.24C221.731 520.97 230.891 511.84 242.161 511.85C253.431 511.86 262.561 521.01 262.541 532.28C262.531 543.53 253.411 552.65 242.161 552.66H242.111V552.67ZM242.111 514.8C232.421 514.79 224.561 522.63 224.551 532.32C224.541 542.01 232.381 549.87 242.071 549.88C251.761 549.89 259.621 542.05 259.631 532.36C259.621 522.68 251.781 514.84 242.111 514.82V514.8Z" fill="white"/>
    <path d="M242.161 553.17H242.111C236.521 553.17 231.281 550.98 227.331 547.03C223.391 543.08 221.221 537.82 221.221 532.24C221.221 526.66 223.411 521.41 227.361 517.46C231.311 513.52 236.551 511.35 242.131 511.35H242.161C247.751 511.35 252.991 513.54 256.941 517.49C260.881 521.44 263.051 526.7 263.051 532.28C263.041 543.78 253.671 553.15 242.171 553.16L242.161 553.17ZM242.111 552.18H242.161C253.111 552.17 262.031 543.25 262.051 532.29C262.051 526.97 259.991 521.97 256.241 518.2C252.491 514.43 247.491 512.36 242.171 512.35H242.151C236.841 512.35 231.851 514.41 228.091 518.16C224.321 521.92 222.251 526.91 222.241 532.23C222.241 537.55 224.301 542.55 228.051 546.32C231.801 550.09 236.801 552.16 242.121 552.17L242.111 552.18ZM242.091 550.39H242.071C232.121 550.38 224.041 542.28 224.051 532.33C224.051 522.39 232.151 514.31 242.091 514.31H242.111L242.611 514.34C252.301 514.62 260.121 522.6 260.131 532.36C260.131 537.19 258.241 541.72 254.831 545.12C251.421 548.52 246.901 550.39 242.091 550.39ZM241.611 515.32C232.441 515.57 225.061 523.11 225.051 532.33C225.051 541.73 232.671 549.38 242.071 549.39H242.091C246.631 549.39 250.911 547.62 254.121 544.41C257.341 541.2 259.121 536.92 259.121 532.37C259.111 522.99 251.471 515.35 242.101 515.33H241.611V515.32Z" fill="#002346"/>
    <path d="M251.992 539.96L244.362 532.33L251.992 524.71L249.772 522.49L242.142 530.11L234.482 522.45L232.262 524.67L239.922 532.33L232.252 540L234.472 542.22L242.142 534.55L249.772 542.18L251.992 539.96Z" fill="white"/>
    <path d="M234.471 542.93L231.541 540L239.211 532.33L231.551 524.67L234.481 521.74L242.141 529.4L249.771 521.77L252.701 524.7L245.071 532.33L252.701 539.96L249.771 542.89L242.141 535.26L234.471 542.93ZM232.961 540L234.471 541.51L242.141 533.84L249.771 541.47L251.281 539.96L243.651 532.33L251.281 524.7L249.771 523.19L242.141 530.82L234.481 523.16L232.971 524.67L240.631 532.33L232.961 540Z" fill="#002346"/>
    <path d="M426.461 516.82H277.441V519.64H426.461V516.82Z" fill="white"/>
    <path d="M426.961 520.14H276.941V516.32H426.961V520.14ZM277.941 519.14H425.961V517.32H277.941V519.14Z" fill="#002346"/>
    <path d="M426.461 528.07H277.441V530.89H426.461V528.07Z" fill="white"/>
    <path d="M426.961 531.39H276.941V527.57H426.961V531.39ZM277.941 530.39H425.961V528.57H277.941V530.39Z" fill="#002346"/>
    <path d="M399.091 533.74H277.441V536.56H399.091V533.74Z" fill="white"/>
    <path d="M399.591 537.06H276.941V533.24H399.591V537.06ZM277.941 536.06H398.591V534.24H277.941V536.06Z" fill="#002346"/>
    <path d="M358.181 539.4H277.441V542.22H358.181V539.4Z" fill="white"/>
    <path d="M358.681 542.72H276.941V538.9H358.681V542.72ZM277.941 541.72H357.681V539.9H277.941V541.72Z" fill="#002346"/>
    <path d="M399.091 545.05H277.441V547.87H399.091V545.05Z" fill="white"/>
    <path d="M399.591 548.37H276.941V544.55H399.591V548.37ZM277.941 547.37H398.591V545.55H277.941V547.37Z" fill="#002346"/>
    <path d="M447.542 275.17H200.682V337.22H447.542V275.17Z" fill="black"/>
    <path d="M448.042 337.72H200.182V274.67H448.042V337.72ZM201.182 336.72H447.042V275.67H201.182V336.72Z" fill="#002346"/>
    <path d="M452.941 342.88H195.291V269.5H452.941V342.88ZM196.831 341.34H451.401V271.04H196.831V341.34Z" fill="#002346"/>
    <path d="M233.731 317.4L225.271 308.86L228.121 306.04L233.051 311.05L243.301 294.98L246.651 297.13L233.731 317.4Z" fill="white"/>
    <path d="M236.731 327.87C224.751 327.87 215.041 318.16 215.041 306.18C215.041 294.2 224.751 284.49 236.731 284.49C248.711 284.49 258.421 294.2 258.421 306.18C258.411 318.15 248.701 327.86 236.731 327.87ZM236.731 287.51C226.411 287.51 218.041 295.87 218.031 306.19C218.031 316.51 226.391 324.88 236.711 324.89C247.031 324.89 255.401 316.53 255.411 306.21C255.411 295.88 247.061 287.52 236.741 287.51H236.731Z" fill="white"/>
    <path d="M433.191 289.63H274.381V292.63H433.191V289.63Z" fill="white"/>
    <path d="M433.191 301.63H274.381V304.63H433.191V301.63Z" fill="white"/>
    <path d="M404.021 307.66H274.381V310.66H404.021V307.66Z" fill="white"/>
    <path d="M360.411 313.69H274.381V316.69H360.411V313.69Z" fill="white"/>
    <path d="M404.021 319.73H274.381V322.73H404.021V319.73Z" fill="white"/>
    <path d="M306.531 620.89C306.541 623 304.841 624.72 302.731 624.73C300.621 624.74 298.901 623.04 298.891 620.93C298.881 618.82 300.581 617.1 302.691 617.09C304.791 617.08 306.511 618.78 306.521 620.88L306.531 620.89Z" fill="white"/>
    <path d="M302.711 625.23C301.561 625.23 300.491 624.79 299.671 623.98C298.851 623.17 298.391 622.09 298.391 620.93C298.391 619.77 298.831 618.69 299.641 617.87C300.451 617.05 301.531 616.59 302.691 616.59H302.711C303.861 616.59 304.941 617.03 305.751 617.84C306.571 618.65 307.021 619.73 307.031 620.88C307.031 622.04 306.591 623.13 305.781 623.95C304.971 624.77 303.891 625.23 302.731 625.23H302.711ZM302.721 617.59H302.701C301.801 617.59 300.971 617.94 300.351 618.57C299.731 619.2 299.391 620.04 299.391 620.92C299.391 621.8 299.741 622.64 300.371 623.26C301.001 623.88 301.821 624.19 302.721 624.22C303.611 624.22 304.441 623.87 305.061 623.24C305.681 622.61 306.021 621.77 306.021 620.89C306.021 620 305.671 619.17 305.041 618.54C304.411 617.91 303.591 617.58 302.711 617.58L302.721 617.59Z" fill="#002346"/>
    <path d="M324.111 627.14C327.563 627.14 330.361 624.342 330.361 620.89C330.361 617.438 327.563 614.64 324.111 614.64C320.66 614.64 317.861 617.438 317.861 620.89C317.861 624.342 320.66 627.14 324.111 627.14Z" fill="white"/>
    <path d="M324.111 627.64C320.391 627.64 317.361 624.61 317.361 620.89C317.361 617.17 320.391 614.14 324.111 614.14C327.831 614.14 330.861 617.17 330.861 620.89C330.861 624.61 327.831 627.64 324.111 627.64ZM324.111 615.14C320.941 615.14 318.361 617.72 318.361 620.89C318.361 624.06 320.941 626.64 324.111 626.64C327.281 626.64 329.861 624.06 329.861 620.89C329.861 617.72 327.281 615.14 324.111 615.14Z" fill="#002346"/>
    <path d="M349.312 620.89C349.322 623 347.622 624.72 345.512 624.73C343.402 624.74 341.682 623.04 341.672 620.93C341.662 618.82 343.362 617.1 345.472 617.09C347.582 617.09 349.292 618.78 349.302 620.89H349.312Z" fill="white"/>
    <path d="M345.492 625.23C344.342 625.23 343.272 624.79 342.452 623.98C341.632 623.17 341.182 622.09 341.172 620.93C341.162 618.55 343.092 616.6 345.472 616.59H345.482C347.862 616.59 349.802 618.52 349.812 620.89C349.822 623.27 347.892 625.22 345.512 625.23H345.492ZM345.492 617.59C343.652 617.59 342.172 619.1 342.182 620.93C342.182 621.82 342.532 622.65 343.162 623.27C343.792 623.89 344.612 624.23 345.492 624.23H345.512C346.402 624.23 347.232 623.88 347.852 623.25C348.472 622.62 348.812 621.78 348.812 620.9C348.812 619.08 347.312 617.6 345.492 617.6V617.59Z" fill="#002346"/>
    <path d="M538.171 216.23C546.651 216.76 560.851 243.49 560.851 243.49L534.851 262.76C534.851 262.76 530.211 223.32 530.211 223.26C530.211 223.2 538.171 216.23 538.171 216.23Z" fill="black"/>
    <path d="M534.451 263.67L534.351 262.81C531.261 236.5 529.711 223.31 529.711 223.25C529.711 223.06 532.421 220.59 537.841 215.84L538.001 215.7H538.211C546.871 216.25 560.721 242.14 561.301 243.24L561.501 243.62L534.461 263.66H534.451V263.67ZM530.731 223.46C531.051 226.17 534.601 256.35 535.241 261.85L560.201 243.35C558.451 240.13 545.931 217.61 538.331 216.75C535.541 219.19 531.571 222.68 530.721 223.46H530.731Z" fill="#002346"/>
    <path d="M482.021 510.22L487.232 520.22C487.232 520.22 491.712 517.84 498.822 513.95C500.822 512.84 503.121 511.61 505.531 510.25C512.271 506.55 520.352 502.05 528.902 497.25L534.491 494.04C564.101 477.04 588.382 460.81 588.382 451.91C588.382 437 577.571 408.63 562.311 380.24C552.111 361.24 543.621 346.01 543.621 346.01L507.361 368.21C507.361 368.21 519.711 384.72 532.361 402.9C547.121 424.11 562.292 447.55 558.822 449.9C556.172 451.68 542.682 462.23 527.772 474.03L525.061 476.15C517.061 482.52 508.712 489.15 501.542 494.8L495.702 499.38L482.021 510.22Z" fill="#F2B3C1"/>
    <path d="M487.021 520.89L481.391 510.08L501.241 494.4C507.541 489.44 515.231 483.34 524.761 475.75L527.471 473.63C535.691 467.12 555.191 451.73 558.551 449.48C558.591 449.45 558.731 449.36 558.801 449.01C559.291 446.39 555.021 436.32 531.961 403.18C519.461 385.22 507.091 368.67 506.971 368.5L506.641 368.06L543.811 345.3L544.061 345.75C544.141 345.9 552.671 361.2 562.751 379.99C578.871 409.97 588.881 437.53 588.881 451.9C588.881 459.73 571.681 473.26 534.741 494.46L529.151 497.67C520.041 502.78 512.181 507.16 505.771 510.67C504.291 511.51 502.841 512.3 501.481 513.04C500.641 513.5 499.821 513.94 499.061 514.37C492.031 518.22 487.511 520.62 487.461 520.64L487.021 520.88V520.89ZM482.651 510.36L487.441 519.55C488.741 518.86 492.821 516.67 498.581 513.52C499.351 513.09 500.161 512.65 501.011 512.19C502.361 511.45 503.811 510.66 505.291 509.82C511.701 506.3 519.561 501.93 528.661 496.82L534.251 493.61C570.341 472.89 587.891 459.25 587.891 451.91C587.891 437.7 577.921 410.33 561.881 380.48C552.771 363.51 544.931 349.39 543.451 346.71L508.101 368.35C510.151 371.1 521.411 386.27 532.781 402.61C551.451 429.44 560.541 445.12 559.781 449.2C559.691 449.7 559.461 450.08 559.111 450.31C556.761 451.89 545.461 460.67 528.091 474.42L525.381 476.54C515.861 484.12 508.161 490.22 501.861 495.19L496.021 499.77L482.671 510.35H482.651V510.36Z" fill="#002346"/>
    <path d="M466.021 386.59L473.021 407.89L474.441 412.27L485.111 444.67L486.322 448.39L493.371 469.81L501.542 494.73L505.322 506.26C505.322 507.56 505.461 508.88 505.551 510.15C509.141 565.21 537.822 637.15 537.822 637.15L548.022 634.39C544.382 591.15 536.611 540.75 528.861 497.13C527.571 489.89 526.312 482.82 524.962 476.01C524.242 472.12 523.541 468.44 522.861 464.8C521.381 457.01 519.981 449.73 518.601 442.91C517.961 439.68 517.331 436.58 516.751 433.57C515.251 426.13 513.891 419.51 512.681 413.82C511.471 408.13 510.521 403.45 509.741 399.82C508.651 394.61 508.021 391.67 508.021 391.67L466.021 386.59Z" fill="#F2B3C1"/>
    <path d="M537.521 637.75L537.351 637.34C537.061 636.62 508.601 564.7 505.051 510.19L504.981 509.23C504.901 508.29 504.831 507.31 504.821 506.34L465.301 386L508.431 391.22L508.501 391.57C508.501 391.57 509.131 394.51 510.221 399.72C510.611 401.51 511.031 403.56 511.511 405.87C512.001 408.23 512.551 410.85 513.161 413.72C514.301 419.08 515.631 425.55 517.231 433.48C517.621 435.5 518.031 437.55 518.451 439.66L519.081 442.82C520.531 450.01 521.991 457.59 523.341 464.71L524.141 468.95C524.571 471.22 525.001 473.53 525.451 475.93C526.801 482.74 528.041 489.69 529.351 497.05C538.941 551.04 545.391 597.24 548.521 634.36L548.561 634.78L537.531 637.77V637.75H537.521ZM466.731 387.18L505.811 506.26C505.811 507.21 505.891 508.2 505.961 509.15L506.031 510.12C509.431 562.32 535.771 630.59 538.101 636.56L547.471 634.03C544.331 597.02 537.901 550.99 528.351 497.23C527.041 489.87 525.801 482.93 524.451 476.12C524.011 473.72 523.571 471.41 523.141 469.14L522.341 464.9C520.991 457.78 519.541 450.2 518.081 443.02L517.451 439.85C517.031 437.74 516.621 435.69 516.231 433.67C514.631 425.75 513.301 419.29 512.161 413.93C511.551 411.05 511.001 408.43 510.511 406.07C510.031 403.77 509.601 401.72 509.221 399.93C508.351 395.76 507.771 393.05 507.571 392.13L466.711 387.19H466.731V387.18Z" fill="#002346"/>
    <path d="M494.381 499.53C495.701 499.53 494.901 515.88 494.901 515.88C494.901 515.88 484.841 526.09 482.701 535.88C480.561 545.67 474.621 540.3 474.441 529.4C474.261 518.5 474.151 510.18 474.031 502.4C473.911 494.62 480.591 499.41 494.381 499.53Z" fill="black"/>
    <path d="M479.301 541.51C479.221 541.51 479.151 541.51 479.081 541.5C476.311 541.22 474.051 535.91 473.941 529.41C473.821 522.4 473.741 516.46 473.661 511.05L473.531 502.41C473.501 500.43 473.901 499.15 474.781 498.37C476.311 497.03 479.021 497.42 483.121 498.01C486.131 498.45 489.871 498.99 494.391 499.03C494.581 499.03 494.751 499.11 494.891 499.26C496.061 500.49 495.581 512.31 495.401 515.91V516.1L495.261 516.24C495.161 516.34 485.281 526.46 483.191 536C482.161 540.71 480.391 541.52 479.301 541.52V541.51ZM477.961 498.46C476.841 498.46 475.981 498.64 475.441 499.11C474.791 499.68 474.501 500.72 474.531 502.38L474.661 511.02C474.741 516.44 474.831 522.38 474.941 529.38C475.061 536.37 477.481 540.32 479.181 540.49C480.401 540.63 481.541 538.84 482.211 535.76C484.251 526.44 493.151 516.96 494.411 515.65C494.741 508.72 494.751 501.18 494.211 500.01C489.701 499.96 485.981 499.42 482.971 498.98C480.981 498.69 479.281 498.44 477.961 498.44V498.46Z" fill="#002346"/>
    <path d="M535.023 632.6C535.023 631.28 551.383 632.31 551.383 632.31C551.383 632.31 561.383 642.53 571.183 644.83C580.983 647.13 575.483 652.97 564.583 652.97H537.483C529.743 652.97 534.563 646.37 535.023 632.6Z" fill="black"/>
    <path d="M564.582 653.47H537.482C535.512 653.47 534.232 653.05 533.472 652.16C532.142 650.6 532.592 647.86 533.272 643.71C533.762 640.74 534.372 637.04 534.522 632.59C534.522 632.41 534.602 632.23 534.752 632.09C535.982 630.93 547.812 631.58 551.412 631.81H551.602L551.732 631.96C551.832 632.06 561.742 642.1 571.292 644.34C576.332 645.52 576.882 647.48 576.762 648.54C576.442 651.3 571.092 653.47 564.582 653.47ZM535.512 632.78C535.352 637.22 534.742 640.9 534.262 643.87C533.652 647.6 533.202 650.3 534.232 651.51C534.792 652.17 535.822 652.47 537.482 652.47H564.582C571.582 652.47 575.572 650.12 575.772 648.42C575.912 647.2 574.152 646.04 571.072 645.31C561.752 643.12 552.442 634.07 551.162 632.79C544.232 632.36 536.682 632.25 535.522 632.77L535.512 632.78Z" fill="#002346"/>
    <g opacity="0.7">
        <path d="M523.311 398.39L525.691 400.61L560.931 376.67L556.411 365.8C556.471 369.63 555.911 373.45 554.751 377.1C552.791 381.67 529.441 394.92 523.311 398.39Z" fill="white"/>
    </g>
    <path d="M560.831 376.72L525.571 400.67L523.311 398.46L515.311 390.9V409.81L466.641 401.08C459.261 368.41 460.191 344.21 463.381 327.59C464.861 319.22 467.521 311.09 471.271 303.46L471.891 297.29L537.741 304.13L538.381 308.43L541.551 329.67L556.371 365.88L560.831 376.72Z" fill="white"/>
    <path d="M515.812 410.4L466.232 401.51L466.162 401.19C459.912 373.54 458.822 348.75 462.902 327.5C464.382 319.11 467.042 310.98 470.792 303.32L471.452 296.74L538.182 303.67L542.042 329.53L561.452 376.9L525.522 401.31L522.972 398.81L515.822 392.05V410.4H515.812ZM467.062 400.64L514.812 409.21V389.74L525.632 400.03L560.222 376.54L555.912 366.08L541.062 329.75L537.312 304.59L472.352 297.84L471.732 303.68C468.002 311.27 465.362 319.35 463.882 327.68C459.842 348.72 460.912 373.27 467.062 400.65V400.64Z" fill="#002346"/>
    <path d="M472.571 299.56C457.351 296.09 472.381 296.31 467.431 227.56C467.111 224.08 467.391 220.57 468.251 217.18C469.861 211.61 475.271 208.04 481.021 208.73C483.671 209.03 486.021 209.3 486.551 209.32C487.971 209.32 489.431 209.42 490.901 209.51C500.821 209.92 510.711 211.04 520.471 212.86C522.881 213.35 525.361 213.93 527.771 214.5C528.551 214.69 537.511 216.07 538.211 216.27C538.211 216.27 548.451 232.18 547.511 243.7C546.991 250.13 544.811 254.86 544.631 270.28C544.241 305.28 551.561 304.28 536.361 305.28L472.571 299.56Z" fill="black"/>
    <path d="M536.391 305.78L472.461 300.05C464.251 298.18 464.411 296.95 465.731 287.4C466.991 278.24 469.351 261.2 466.931 227.59C466.611 224.05 466.891 220.5 467.761 217.05C469.451 211.2 475.051 207.5 481.071 208.23L481.691 208.3C484.051 208.57 486.091 208.8 486.561 208.82C487.841 208.82 489.201 208.9 490.511 208.99L490.921 209.02C500.821 209.42 510.801 210.55 520.551 212.38C522.961 212.87 525.391 213.44 527.871 214.02C528.211 214.1 530.411 214.46 532.531 214.8C535.791 215.33 537.951 215.68 538.331 215.79L538.511 215.84L538.611 216C539.031 216.66 548.931 232.19 547.991 243.74C547.811 245.9 547.461 247.85 547.051 250.1C546.241 254.53 545.231 260.04 545.111 270.29C544.981 281.69 545.681 289.3 546.141 294.33C546.631 299.64 546.871 302.31 545.591 303.81C544.351 305.27 541.901 305.42 537.031 305.74L536.371 305.78H536.391ZM472.651 299.07L536.411 304.79L536.991 304.75C541.431 304.46 543.881 304.3 544.851 303.17C545.861 301.99 545.631 299.46 545.171 294.43C544.711 289.38 544.011 281.74 544.141 270.29C544.261 259.96 545.281 254.4 546.091 249.93C546.501 247.71 546.851 245.79 547.021 243.67C547.881 233.08 538.991 218.46 537.911 216.72C537.161 216.57 534.541 216.14 532.401 215.79C530.061 215.41 528.051 215.08 527.671 214.99C525.201 214.41 522.781 213.84 520.391 213.35C510.691 211.54 500.771 210.41 490.901 210.01L490.481 209.98C489.181 209.9 487.841 209.82 486.571 209.82C486.041 209.8 484.091 209.58 481.611 209.3L480.991 209.23C475.451 208.57 470.311 211.96 468.761 217.32C467.911 220.65 467.641 224.08 467.961 227.52C470.391 261.24 468.021 278.35 466.751 287.54C465.441 297.02 465.391 297.4 472.681 299.07H472.651Z" fill="#002346"/>
    <path d="M560.512 223.8L560.342 222.4C560.022 219.76 557.812 217.76 555.162 217.7L554.302 217.68L548.152 218.12L533.962 226.2C533.562 226.43 533.182 226.7 532.852 227.04C526.872 233.64 520.802 240.22 514.742 246.5C510.762 250.37 506.912 254.77 502.472 258.04C495.702 245.87 490.532 232.86 487.142 219.33L487.122 219.15C484.482 206.73 466.542 210.06 468.482 222.58C472.302 240.27 479.792 256.97 490.482 271.58C493.482 276.59 499.832 278.46 505.072 275.88C509.502 273.53 513.432 270.34 516.632 266.48C525.092 256.72 532.582 246.17 539.022 234.99C546.162 236.85 553.072 231.55 553.142 231.5L556.292 229.69C559.012 229.12 560.832 226.57 560.502 223.81L560.512 223.8Z" fill="#F2B3C1"/>
    <path d="M500.162 277.51C496.142 277.51 492.221 275.45 490.051 271.83C479.281 257.1 471.851 240.56 467.991 222.68C466.931 215.86 471.402 211.86 476.002 211.01C480.582 210.17 486.181 212.32 487.611 219.04L487.642 219.27C490.952 232.45 496.002 245.26 502.642 257.29C505.622 255.02 508.381 252.21 511.051 249.49C512.171 248.35 513.282 247.22 514.402 246.13C519.722 240.61 525.481 234.43 532.491 226.69C532.761 226.41 533.052 226.18 533.402 225.95L533.721 225.75L548.121 217.61L554.272 217.17L555.171 217.19C558.051 217.26 560.492 219.47 560.842 222.33L561.012 223.73C561.382 226.74 559.431 229.48 556.491 230.14L553.402 231.91C553.172 232.09 546.452 237.18 539.272 235.55C532.832 246.67 525.352 257.18 517.012 266.8C513.762 270.72 509.822 273.92 505.312 276.31C503.672 277.12 501.912 277.5 500.172 277.5L500.162 277.51ZM477.901 211.85C477.321 211.85 476.741 211.9 476.181 212.01C472.041 212.77 468.022 216.38 468.972 222.51C472.792 240.22 480.172 256.64 490.882 271.29C493.752 276.08 499.882 277.88 504.852 275.44C509.232 273.12 513.072 270 516.252 266.17C524.632 256.5 532.151 245.93 538.601 234.75L538.791 234.42L539.161 234.52C546.011 236.31 552.781 231.17 552.851 231.11L556.202 229.2C558.682 228.68 560.322 226.39 560.022 223.87L559.851 222.47C559.561 220.1 557.542 218.26 555.152 218.21L554.291 218.19L548.301 218.62L534.532 226.46L534.202 226.66C533.782 226.89 533.472 227.13 533.202 227.4C526.192 235.13 520.432 241.32 515.092 246.86C513.962 247.96 512.862 249.08 511.752 250.21C508.922 253.09 505.991 256.08 502.771 258.45L502.312 258.79L502.032 258.29C495.222 246.04 490.041 232.98 486.651 219.46L486.621 219.21C485.511 214.01 481.601 211.85 477.901 211.85Z" fill="#002346"/>
    <path d="M479.473 208.67C469.153 207.44 462.843 219.45 466.093 247.04H498.353C498.353 247.04 496.443 210.67 479.473 208.67Z" fill="black"/>
    <path d="M498.882 247.54H465.652L465.602 247.1C463.482 229.07 465.272 216.63 470.802 211.11C473.162 208.75 476.102 207.77 479.542 208.18C496.732 210.21 498.782 245.52 498.862 247.02L498.892 247.55H498.882V247.54ZM466.542 246.53H497.822C497.502 242.07 494.682 210.96 479.422 209.16C476.302 208.79 473.642 209.68 471.512 211.81C466.332 216.98 464.572 229.31 466.552 246.54H466.542V246.53Z" fill="#002346"/>
    <path d="M505.572 129.94C505.572 129.94 512.992 124.59 525.572 128.69C538.152 132.79 551.132 146.31 545.392 165.69C543.172 173.17 541.922 179.6 541.222 184.68C540.272 191.6 533.672 196.27 526.832 194.84C513.352 192.02 493.852 187.2 488.012 181.85C478.812 173.42 480.252 124.96 505.562 129.94H505.572Z" fill="#002346"/>
    <path d="M529.341 195.6C528.481 195.6 527.611 195.51 526.741 195.33C512.121 192.28 493.471 187.52 487.681 182.22C481.411 176.47 479.971 153.52 486.951 139.72C491.111 131.49 497.511 127.93 505.461 129.41C506.711 128.59 513.981 124.39 525.721 128.21C537.191 131.95 552.021 145.05 545.871 165.83C543.961 172.29 542.561 178.66 541.721 184.75C541.241 188.24 539.391 191.28 536.511 193.31C534.371 194.82 531.891 195.6 529.341 195.6ZM502.071 130.08C494.631 130.08 490.271 135.37 487.851 140.16C481.171 153.37 482.461 176.06 488.361 181.47C492.751 185.49 506.451 190.06 526.941 194.34C530.101 195 533.301 194.34 535.941 192.48C538.591 190.61 540.291 187.82 540.731 184.6C541.581 178.46 542.981 172.04 544.911 165.54C550.861 145.45 536.511 132.77 525.411 129.16C513.251 125.2 505.931 130.29 505.861 130.34L505.681 130.47L505.471 130.43C504.271 130.19 503.131 130.08 502.061 130.08H502.071Z" fill="#002346"/>
    <path d="M496.681 176.4C498.181 186.13 499.381 204 492.471 209.67C499.661 213.83 507.041 217.65 514.581 221.11C518.231 222.79 522.631 220.58 523.161 216.59C523.491 214.08 522.071 212.98 522.071 212.98C511.561 209.22 512.131 201.3 514.291 194.07L496.681 176.4Z" fill="#F2B3C1"/>
    <path d="M517.172 222.17C516.212 222.17 515.262 221.97 514.372 221.56C506.842 218.1 499.392 214.24 492.222 210.1L491.602 209.74L492.162 209.28C498.112 204.4 498.142 189.13 496.192 176.47L495.962 174.96L514.862 193.93L514.772 194.22C512.682 201.2 511.942 208.83 522.242 212.52L522.382 212.6C522.452 212.65 524.022 213.91 523.652 216.67C523.392 218.66 522.212 220.36 520.432 221.35C519.422 221.91 518.302 222.19 517.172 222.19V222.17ZM493.322 209.58C500.282 213.58 507.502 217.31 514.792 220.66C516.432 221.41 518.362 221.34 519.942 220.47C521.452 219.64 522.442 218.2 522.662 216.53C522.912 214.6 522.042 213.64 521.812 213.42C510.912 209.47 511.702 201.14 513.732 194.21L497.402 177.82C498.422 185.23 500.062 203.1 493.332 209.58H493.322Z" fill="#002346"/>
    <path d="M497.797 152.661L494.456 169.799C492.104 181.865 499.979 193.554 512.046 195.906L512.056 195.908C524.123 198.26 535.811 190.385 538.164 178.318L541.504 161.181C543.856 149.114 535.981 137.425 523.914 135.073L523.904 135.071C511.837 132.719 500.149 140.594 497.797 152.661Z" fill="#F2B3C1"/>
    <path d="M516.331 196.79C514.891 196.79 513.431 196.65 511.971 196.37C499.651 193.97 491.581 181.99 493.981 169.67L497.321 152.54C498.481 146.57 501.901 141.41 506.941 138.02C511.981 134.62 518.051 133.39 524.011 134.55C536.331 136.95 544.401 148.93 542.001 161.25L538.661 178.38C536.541 189.24 526.991 196.79 516.331 196.79ZM512.161 195.39C523.941 197.68 535.391 189.97 537.681 178.19L541.021 161.06C543.311 149.28 535.601 137.83 523.821 135.54C518.111 134.43 512.321 135.61 507.501 138.85C502.681 142.1 499.411 147.03 498.301 152.74L494.961 169.87C492.671 181.65 500.381 193.1 512.161 195.39Z" fill="#002346"/>
    <path d="M502.361 162.81C502.361 162.81 513.731 155.81 515.111 138.62C515.111 138.62 534.111 138.02 540.741 154.82C540.741 154.82 538.361 130.66 511.301 129.65C484.241 128.64 491.691 158.39 493.781 161.48C495.871 164.57 502.361 162.81 502.361 162.81Z" fill="#002346"/>
    <path d="M498.5 163.81C496.58 163.81 494.47 163.38 493.37 161.76C491.95 159.65 488.37 146.29 493.3 137.42C496.53 131.61 502.59 128.82 511.33 129.15C538.51 130.16 541.22 154.52 541.25 154.77L541.6 158.33L540.29 155C534.43 140.14 518.45 139.17 515.58 139.12C514.03 156.03 502.75 163.16 502.63 163.23L502.5 163.29C502.36 163.33 500.54 163.81 498.51 163.81H498.5ZM509.97 130.12C502.35 130.12 497.03 132.73 494.16 137.9C489.43 146.41 492.83 159.18 494.19 161.19C495.94 163.78 501.46 162.51 502.15 162.34C503.03 161.76 513.31 154.65 514.6 138.57L514.64 138.12H515.09C515.26 138.1 531.68 137.75 539.46 151.03C537.57 144.26 531.3 130.89 511.28 130.14C510.84 130.12 510.4 130.12 509.97 130.12Z" fill="#002346"/>
    <path d="M101.73 186.38C137.899 186.38 167.22 157.059 167.22 120.89C167.22 84.7209 137.899 55.4 101.73 55.4C65.5611 55.4 36.2402 84.7209 36.2402 120.89C36.2402 157.059 65.5611 186.38 101.73 186.38Z" fill="white"/>
    <path d="M101.731 186.85C84.8309 186.85 67.9309 180.42 55.0709 167.55C29.3409 141.82 29.3409 99.96 55.0709 74.23C80.8009 48.5 122.661 48.5 148.391 74.23C174.121 99.96 174.121 141.82 148.391 167.55C135.531 180.41 118.631 186.85 101.731 186.85ZM55.7709 74.93C30.4309 100.27 30.4309 141.5 55.7709 166.84C81.1109 192.18 122.341 192.18 147.681 166.84C173.021 141.5 173.021 100.27 147.681 74.93C122.341 49.59 81.1109 49.59 55.7709 74.93Z" fill="#002346"/>
    <path d="M101.711 180.78C134.804 180.78 161.631 153.953 161.631 120.86C161.631 87.767 134.804 60.9399 101.711 60.9399C68.6181 60.9399 41.791 87.767 41.791 120.86C41.791 153.953 68.6181 180.78 101.711 180.78Z" fill="white"/>
    <path d="M101.711 181.28C68.391 181.28 41.291 154.18 41.291 120.86C41.291 87.5399 68.391 60.4399 101.711 60.4399C135.031 60.4399 162.131 87.5399 162.131 120.86C162.131 154.18 135.031 181.28 101.711 181.28ZM101.711 61.4399C68.951 61.4399 42.291 88.0999 42.291 120.86C42.291 153.62 68.951 180.28 101.711 180.28C134.471 180.28 161.131 153.62 161.131 120.86C161.131 88.0999 134.471 61.4399 101.711 61.4399Z" fill="#002346"/>
    <path d="M107.301 120.89C107.301 117.81 104.811 115.31 101.731 115.3C98.6506 115.3 96.1506 117.79 96.1406 120.87C96.1406 123.95 98.6306 126.45 101.711 126.46C104.791 126.46 107.281 123.97 107.291 120.89H107.301Z" fill="#002346"/>
    <path d="M101.721 126.96C100.091 126.96 98.5607 126.32 97.4107 125.17C96.2607 124.02 95.6307 122.49 95.6407 120.87C95.6507 119.25 96.2807 117.72 97.4307 116.57C98.5807 115.43 100.101 114.8 101.721 114.8H101.731C103.351 114.8 104.881 115.44 106.031 116.59C107.181 117.74 107.811 119.27 107.801 120.89C107.801 124.24 105.071 126.96 101.721 126.96ZM101.721 115.8C100.371 115.8 99.0907 116.33 98.1407 117.28C97.1907 118.23 96.6507 119.51 96.6507 120.87C96.6507 122.23 97.1707 123.5 98.1307 124.46C99.0907 125.42 100.361 125.95 101.721 125.95C104.531 125.95 106.801 123.68 106.811 120.88C106.811 119.52 106.291 118.25 105.331 117.29C104.371 116.33 103.101 115.8 101.741 115.8H101.721Z" fill="#0D2445"/>
    <path d="M106.679 124.724L105.895 125.345L114.612 136.363L115.396 135.743L106.679 124.724Z" fill="#002346"/>
    <path d="M126.662 81.1185L101.883 116.481L102.702 117.055L127.481 81.6924L126.662 81.1185Z" fill="#002346"/>
    <path d="M515.311 391.4C515.031 391.4 514.811 391.18 514.811 390.9V365.8C514.811 365.52 515.031 365.3 515.311 365.3C515.591 365.3 515.811 365.52 515.811 365.8V390.9C515.811 391.18 515.591 391.4 515.311 391.4Z" fill="#002346"/>
    <path d="M543.915 158.912C547.075 154.309 542.417 145.621 533.511 139.507C524.605 133.393 514.824 132.168 511.663 136.771C508.503 141.374 513.161 150.062 522.067 156.177C530.973 162.291 540.755 163.515 543.915 158.912Z" fill="#002346"/>
    <path d="M537.23 162.14C532.78 162.14 527.1 160.22 521.77 156.56C512.65 150.3 507.92 141.28 511.23 136.46C512.87 134.07 516.15 133.06 520.47 133.6C524.67 134.13 529.4 136.07 533.77 139.07C542.89 145.33 547.62 154.35 544.31 159.17C542.94 161.17 540.39 162.14 537.22 162.14H537.23ZM518.29 134.45C515.39 134.45 513.21 135.34 512.06 137.02C509.06 141.39 513.67 149.78 522.34 155.73C531.01 161.68 540.5 162.96 543.5 158.6C546.5 154.23 541.89 145.84 533.22 139.89C528.98 136.98 524.41 135.09 520.36 134.59C519.64 134.5 518.95 134.46 518.3 134.46H518.29V134.45Z" fill="#002346"/>
    <path d="M497.521 169.35C500.283 169.35 502.521 166.664 502.521 163.35C502.521 160.036 500.283 157.35 497.521 157.35C494.76 157.35 492.521 160.036 492.521 163.35C492.521 166.664 494.76 169.35 497.521 169.35Z" fill="#F2B3C1"/>
    <path d="M497.521 169.85C494.491 169.85 492.021 166.93 492.021 163.35C492.021 159.77 494.491 156.85 497.521 156.85C500.551 156.85 503.021 159.77 503.021 163.35C503.021 166.93 500.551 169.85 497.521 169.85ZM497.521 157.85C495.041 157.85 493.021 160.32 493.021 163.35C493.021 166.38 495.041 168.85 497.521 168.85C500.001 168.85 502.021 166.38 502.021 163.35C502.021 160.32 500.001 157.85 497.521 157.85Z" fill="#002346"/>
    <path d="M642.541 88.88C674.001 88.88 699.541 114.42 699.541 145.88H585.541C585.541 114.42 611.081 88.88 642.541 88.88Z" fill="white"/>
    <path d="M700.041 146.38H585.041V145.88C585.041 114.17 610.831 88.38 642.541 88.38C674.251 88.38 700.041 114.17 700.041 145.88V146.38ZM586.041 145.38H699.041C698.771 114.46 673.531 89.38 642.541 89.38C611.551 89.38 586.311 114.46 586.041 145.38Z" fill="#002346"/>
    <path d="M657.531 91.38C657.401 91.38 657.261 91.33 657.171 91.22L642.541 75.69L627.911 91.22C627.721 91.42 627.401 91.43 627.201 91.24C627.001 91.05 626.991 90.73 627.181 90.53L642.171 74.61C642.361 74.41 642.711 74.41 642.901 74.61L657.891 90.53C658.081 90.73 658.071 91.05 657.871 91.24C657.771 91.33 657.651 91.38 657.531 91.38Z" fill="#002346"/>
    <path d="M642.541 75.45C642.261 75.45 642.041 75.23 642.041 74.95V10.36C642.041 10.08 642.261 9.85999 642.541 9.85999C642.821 9.85999 643.041 10.08 643.041 10.36V74.95C643.041 75.23 642.821 75.45 642.541 75.45Z" fill="#002346"/>
    <path d="M643.041 161.88C652.154 161.88 659.541 154.493 659.541 145.38C659.541 136.267 652.154 128.88 643.041 128.88C633.928 128.88 626.541 136.267 626.541 145.38C626.541 154.493 633.928 161.88 643.041 161.88Z" fill="black"/>
    <path d="M643.041 162.38C633.671 162.38 626.041 154.75 626.041 145.38C626.041 136.01 633.671 128.38 643.041 128.38C652.411 128.38 660.041 136.01 660.041 145.38C660.041 154.75 652.411 162.38 643.041 162.38ZM643.041 129.38C634.221 129.38 627.041 136.56 627.041 145.38C627.041 154.2 634.221 161.38 643.041 161.38C651.861 161.38 659.041 154.2 659.041 145.38C659.041 136.56 651.861 129.38 643.041 129.38Z" fill="#002346"/>
</svg>
