<svg width="519" height="175" viewBox="0 0 519 175" fill="none" xmlns="http://www.w3.org/2000/svg">
    <path
        d="M46.6074 0.362819C36.9197 1.90337 27.8542 7.11752 19.3219 16.0053C8.09371 27.6779 1.72414 40.8022 0.213223 55.2892C-0.20154 59.3184 0.00584146 65.3324 0.687237 68.0284C2.28704 74.6053 6.46429 80.9157 10.4934 82.9006C12.1821 83.7301 12.5969 83.819 14.1374 83.6709C16.7445 83.4339 19.1442 82.0414 22.166 79.0196C26.1951 75.0201 28.3875 71.2872 28.3875 68.5024C28.3875 67.1396 27.1135 64.9177 25.8693 64.0881C24.3287 63.0809 21.218 59.0221 19.9441 56.3558C17.7518 51.7638 17.0407 47.1717 17.7221 41.8095C18.6405 34.403 21.8994 27.4409 27.6172 20.6862C31.35 16.2423 35.2607 13.339 39.4083 11.828C41.2155 11.1763 42.0746 11.0578 44.7113 11.0281C47.7332 11.0281 47.8813 11.0578 50.0736 12.1539C52.9177 13.5463 54.9323 15.6794 56.5321 18.9975C59.5539 25.3078 59.3762 32.5069 55.7914 46.5792C53.5991 55.23 51.9697 60.4442 45.7186 79.1677C37.4826 103.787 34.2534 115.637 32.5647 127.458C31.4389 135.368 31.4982 141.945 32.7128 148.463C34.4904 157.765 39.2009 165.468 45.8371 169.912C51.3772 173.615 57.9837 174.859 65.805 173.674C79.6995 171.571 92.7942 160.461 104.141 141.086C105.296 139.131 106.629 136.79 107.163 135.901L108.081 134.272V136.672C108.111 149.618 111.073 159.484 116.673 165.201C126.597 175.333 137.885 176.755 151.987 169.586C159.956 165.527 167.333 159.869 176.991 150.329L182.057 145.352L182.264 146.537C182.887 150.418 185.642 156.639 188.338 160.195C190.204 162.683 194.233 166.535 196.633 168.164C207.861 175.807 224.718 176.104 240.302 168.993C248.004 165.468 257.959 158.239 268.031 148.877C269.542 147.455 270.935 146.359 271.053 146.448C271.201 146.537 271.32 146.981 271.32 147.426C271.32 148.67 272.594 153.499 273.66 156.225C274.164 157.558 275.26 159.75 276.06 161.083C282.222 171.364 290.488 175.511 301.035 173.674C308.352 172.4 314.663 168.668 322.454 160.935C327.342 156.077 331.105 151.662 335.904 145.145L339.015 140.938L339.193 146.626C339.489 155.277 340.645 160.935 343.015 165.527C345.829 170.919 349.829 173.615 355.665 174.03C361.501 174.445 367.811 172.252 374.477 167.512C378.951 164.313 386.476 157.824 395.986 149.026L398.919 146.3L399.096 153.914C399.245 160.313 400.044 173.793 400.311 174.03C400.37 174.089 406.296 172.726 413.524 171.008C420.753 169.29 426.678 167.897 426.708 167.897C426.737 167.897 426.856 163.927 426.945 159.069C427.152 149.885 427.567 144.967 428.811 136.79C429.759 130.539 430.204 128.88 431.596 125.977C432.988 123.044 433.67 122.185 440.336 114.423C446.587 107.135 454.704 98.7504 458.259 95.8767C461.192 93.5067 464.422 91.7587 465.873 91.7587C467.206 91.7587 468.51 93.0326 468.806 94.5732C469.221 96.8544 467.71 102.039 463.296 113.563C459.533 123.34 458.17 127.191 456.334 133.383C450.912 151.722 451.505 162.298 458.348 169.201C462.022 172.934 466.021 174.326 472.035 174C483.827 173.408 497.247 165.498 513.304 149.677L518.133 144.937L518.044 138.005L517.956 131.072L514.193 135.368C506.579 144.048 499.41 150.388 494.521 152.818C489.041 155.573 485.041 154.21 484.004 149.292C483.827 148.374 483.738 146.833 483.856 145.915C484.241 142.034 486.671 134.272 491.263 122.185C499.35 100.913 502.313 88.1444 500.802 81.0934C500.15 77.9827 498.639 75.0497 496.625 73.0352C489.485 65.8361 477.575 68.295 462.999 79.9973C456.837 84.9448 448.661 92.9734 438.143 104.409C436.603 106.098 435.299 107.401 435.24 107.372C435.092 107.194 437.729 97.121 439.151 92.4994C440.81 87.1075 443.506 79.1974 445.639 73.3907C446.498 71.0206 447.209 69.0653 447.179 69.0357C447.031 68.8579 418.176 74.5461 417.938 74.7831C417.494 75.2275 414.443 82.1896 411.599 89.2405C405.97 103.224 402.415 115.459 400.755 126.54L400.044 131.22L393.675 137.501C385.083 145.945 382.21 148.403 379.277 149.855C373.885 152.551 369.411 151.277 367.723 146.596C367.071 144.789 366.863 139.397 367.278 136.02C368.345 127.873 370.3 120.496 379.04 91.4032C382.684 79.227 385.676 69.1838 385.676 69.0949C385.676 69.006 384.165 68.9468 382.299 68.9468H378.921L367.1 75.6126C360.583 79.2566 355.072 82.3377 354.806 82.4266C354.509 82.5451 354.243 82.3081 353.976 81.6563C353.265 79.9973 350.865 76.531 349.325 74.9905C345.355 71.0206 339.993 68.9764 333.505 68.9468C327.935 68.9468 321.536 70.6947 314.633 74.1609C301.864 80.5305 291.821 89.1517 283.881 100.528C277.571 109.564 273.838 118.096 271.942 127.873L271.083 132.198L266.965 136.138C255.44 147.248 248.034 151.84 239.502 153.232C232.777 154.329 226.703 153.262 221.756 150.122C219.178 148.522 215.505 144.582 213.875 141.678C212.068 138.538 210.439 133.531 209.817 129.384C209.224 125.236 209.372 116.022 210.142 111.608C212.335 98.6023 218.882 86.1298 225.844 81.7156C228.659 79.938 232.154 79.227 234.702 79.938C236.332 80.3824 238.494 82.5451 239.413 84.5893C240.924 87.937 241.013 89.7738 240.065 97.5654C239.176 104.735 239.205 105.713 240.272 106.394C240.627 106.601 241.131 106.601 242.049 106.364C243.146 106.068 251.352 102.306 258.64 98.7504C261.188 97.4765 263.114 95.9656 263.795 94.6621C264.95 92.4401 264.891 87.463 263.617 83.4339C261.81 77.5976 256.625 72.6204 250.137 70.4577C246.582 69.2727 242.968 68.8283 238.583 69.0357C226.377 69.5986 215.297 75.109 204.513 85.9521C192.159 98.3653 184.042 113.83 182.116 128.673L181.731 131.576L178.117 135.427C172.517 141.441 165.081 148.64 162.297 150.714C158.179 153.766 153.409 155.751 150.15 155.751C145.232 155.751 141.499 152.047 139.751 145.53C138.833 142.152 138.833 135.338 139.751 129.384C141.855 115.696 146.002 96.3804 153.557 65.3917C157.468 49.3344 160.608 37.2767 166.178 17.1311C171.095 -0.644462 170.977 0.333193 168.636 0.00730803C167.363 -0.140821 147.632 1.99224 143.603 2.76252C140.196 3.38466 139.336 3.94755 138.329 6.22875C134.804 14.0204 128.434 35.351 115.043 84.056C106.126 116.407 101.238 128.88 91.935 142.863C86.158 151.544 80.7068 155.81 74.752 156.254C68.3824 156.758 64.0867 152.61 63.346 145.322C62.7535 139.368 65.0051 129.413 70.6933 112.793C80.4402 84.2041 83.2546 74.3683 85.5655 60.5627C86.7505 53.4821 87.0764 49.5418 87.0764 43.1722C87.0764 37.0397 86.5727 32.3588 85.3877 27.8853C81.6845 13.5463 72.0264 3.20691 59.939 0.659078C56.7098 -0.0223179 50.0144 -0.170447 46.6074 0.362819ZM339.222 79.7306C342.126 81.0934 344.318 84.1153 345.237 87.9666C345.74 90.1589 345.829 96.0841 345.385 99.7577C344.051 110.838 339.134 124.406 332.527 135.427C327.757 143.367 323.017 148.078 317.477 150.359C314.87 151.455 310.722 151.485 308.441 150.448C306.486 149.588 303.849 146.833 302.842 144.671C299.257 136.849 301.864 120.733 309.271 104.735C316.174 89.833 323.461 81.36 331.194 79.1677C333.594 78.4863 337.149 78.753 339.222 79.7306Z"
        fill="white" />
</svg>
