<?xml version="1.0" standalone="no"?>
<!DOCTYPE svg PUBLIC "-//W3C//DTD SVG 20010904//EN"
 "http://www.w3.org/TR/2001/REC-SVG-20010904/DTD/svg10.dtd">
<svg version="1.0" xmlns="http://www.w3.org/2000/svg"
 width="1773.000000pt" height="914.000000pt" viewBox="0 0 1773.000000 914.000000"
 preserveAspectRatio="xMidYMid meet">

<g transform="translate(0.000000,914.000000) scale(0.100000,-0.100000)"
fill="#000000" stroke="none">
<path d="M1815 7865 c-327 -52 -633 -228 -921 -528 -379 -394 -594 -837 -645
-1326 -14 -136 -7 -339 16 -430 54 -222 195 -435 331 -502 57 -28 71 -31 123
-26 88 8 169 55 271 157 136 135 210 261 210 355 0 46 -43 121 -85 149 -52 34
-157 171 -200 261 -74 155 -98 310 -75 491 31 250 141 485 334 713 126 150
258 248 398 299 61 22 90 26 179 27 102 0 107 -1 181 -38 96 -47 164 -119 218
-231 102 -213 96 -456 -25 -931 -74 -292 -129 -468 -340 -1100 -278 -831 -387
-1231 -444 -1630 -38 -267 -36 -489 5 -709 60 -314 219 -574 443 -724 187
-125 410 -167 674 -127 469 71 911 446 1294 1100 39 66 84 145 102 175 l31 55
0 -81 c1 -437 101 -770 290 -963 335 -342 716 -390 1192 -148 269 137 518 328
844 650 l171 168 7 -40 c21 -131 114 -341 205 -461 63 -84 199 -214 280 -269
379 -258 948 -268 1474 -28 260 119 596 363 936 679 51 48 98 85 102 82 5 -3
9 -18 9 -33 0 -42 43 -205 79 -297 17 -45 54 -119 81 -164 208 -347 487 -487
843 -425 247 43 460 169 723 430 165 164 292 313 454 533 l105 142 6 -192 c10
-292 49 -483 129 -638 95 -182 230 -273 427 -287 197 -14 410 60 635 220 151
108 405 327 726 624 l99 92 6 -257 c5 -216 32 -671 41 -679 2 -2 202 44 446
102 244 58 444 105 445 105 1 0 5 134 8 298 7 310 21 476 63 752 32 211 47
267 94 365 47 99 70 128 295 390 211 246 485 529 605 626 99 80 208 139 257
139 45 0 89 -43 99 -95 14 -77 -37 -252 -186 -641 -127 -330 -173 -460 -235
-669 -183 -619 -163 -976 68 -1209 124 -126 259 -173 462 -162 398 20 851 287
1393 821 l163 160 -3 234 -3 234 -127 -145 c-257 -293 -499 -507 -664 -589
-185 -93 -320 -47 -355 119 -6 31 -9 83 -5 114 13 131 95 393 250 801 273 718
373 1149 322 1387 -22 105 -73 204 -141 272 -241 243 -643 160 -1135 -235
-208 -167 -484 -438 -839 -824 -52 -57 -96 -101 -98 -100 -5 6 84 346 132 502
56 182 147 449 219 645 29 80 53 146 52 147 -5 6 -979 -186 -987 -194 -15 -15
-118 -250 -214 -488 -190 -472 -310 -885 -366 -1259 l-24 -158 -215 -212
c-290 -285 -387 -368 -486 -417 -182 -91 -333 -48 -390 110 -22 61 -29 243
-15 357 36 275 102 524 397 1506 123 411 224 750 224 753 0 3 -51 5 -114 5
l-114 0 -399 -225 c-220 -123 -406 -227 -415 -230 -10 -4 -19 4 -28 26 -24 56
-105 173 -157 225 -134 134 -315 203 -534 204 -188 0 -404 -59 -637 -176 -431
-215 -770 -506 -1038 -890 -213 -305 -339 -593 -403 -923 l-29 -146 -139 -133
c-389 -375 -639 -530 -927 -577 -227 -37 -432 -1 -599 105 -87 54 -211 187
-266 285 -61 106 -116 275 -137 415 -20 140 -15 451 11 600 74 439 295 860
530 1009 95 60 213 84 299 60 55 -15 128 -88 159 -157 51 -113 54 -175 22
-438 -30 -242 -29 -275 7 -298 12 -7 29 -7 60 1 37 10 314 137 560 257 86 43
151 94 174 138 39 75 37 243 -6 379 -61 197 -236 365 -455 438 -120 40 -242
55 -390 48 -412 -19 -786 -205 -1150 -571 -417 -419 -691 -941 -756 -1442
l-13 -98 -122 -130 c-189 -203 -440 -446 -534 -516 -139 -103 -300 -170 -410
-170 -166 0 -292 125 -351 345 -31 114 -31 344 0 545 71 462 211 1114 466
2160 132 542 238 949 426 1629 166 600 162 567 83 578 -43 5 -709 -67 -845
-93 -115 -21 -144 -40 -178 -117 -119 -263 -334 -983 -786 -2627 -301 -1092
-466 -1513 -780 -1985 -195 -293 -379 -437 -580 -452 -215 -17 -360 123 -385
369 -20 201 56 537 248 1098 329 965 424 1297 502 1763 40 239 51 372 51 587
0 207 -17 365 -57 516 -125 484 -451 833 -859 919 -109 23 -335 28 -450 10z
m9877 -2679 c98 -46 172 -148 203 -278 17 -74 20 -274 5 -398 -45 -374 -211
-832 -434 -1204 -161 -268 -321 -427 -508 -504 -88 -37 -228 -38 -305 -3 -66
29 -155 122 -189 195 -121 264 -33 808 217 1348 233 503 479 789 740 863 81
23 201 14 271 -19z"/>
</g>
</svg>
